<?xml version="1.0" encoding="utf-8"?>
<!-- Generator: Adobe Illustrator 28.2.0, SVG Export Plug-In . SVG Version: 6.00 Build 0)  -->
<svg version="1.1" id="Layer_1" xmlns="http://www.w3.org/2000/svg" xmlns:xlink="http://www.w3.org/1999/xlink" x="0px" y="0px"
	 viewBox="0 0 769.5 710.4" style="enable-background:new 0 0 769.5 710.4;" xml:space="preserve">
<style type="text/css">
	.st0{fill:#E8DED5;}
	.st1{fill:#996633;}
	.st2{fill:#3B455A;}
	.st3{fill:#213067;}
	.st4{fill:#EBB044;}
	.st5{fill:#0F0F0F;}
	.st6{fill:#181B34;}
	.st7{fill:#707F78;}
	.st8{fill:#9090B1;}
	.st9{fill:#474EBB;}
	.st10{fill:#484E7F;}
	.st11{fill:#131525;}
	.st12{fill:#D34E4E;}
	.st13{fill:#FFFFFF;}
	.st14{fill:#684739;}
	.st15{fill:#4E506C;}
	.st16{fill:#D18B4B;}
	.st17{fill:#D6924B;}
	.st18{fill:#B4B4CA;}
</style>
<g>
	<g id="shadow">
		<g>
			<path class="st0" d="M353.5,612.1c-22.2,0.1-44.4,0.7-66.6,3.4c-8.4,1-16.5,3.3-24.9,4.3c-16.7,1.8-33.2,5.3-50,6.9
				c-13.5,1.3-27.1,2-40.6,3.7c-12.6,1.5-26.6,1.2-39.2-1.3c-9.3-1.9-18.6-2.9-27.7-5.9c-10.2-3.3-21.3-5.7-32-5.7
				c-15.2,0.1-30,0.1-44.5,6c-5.1,2.1-11.3,5.5-15.2,9.8c-8.9,10-10.1,34.8-1.2,45.2c14.9,17.4,46.7,24.2,67.6,24.5
				c22.9,0.4,45.1-1.6,68.1-2.7c21.3-1,42.6-2.5,63.9-2.5c43.6,0.1,87.2,0,130.7-3.3c40.9-3.1,81.8-2,122.8-2
				c42,0,83.7,0.4,125.4,6.6c18.2,2.7,36.7,3.7,54.9,5.6c16.4,1.7,32.1,0,48.4-1.6c13.7-1.3,27.3-5.3,39.7-11.9
				c9.8-5.3,27.4-21.6,30.4-34.2c8.5-35.3-119.2-34.4-138.8-34.3c-21.9,0.1-44,0.9-65.9,0c-9.2-0.4-18.3-2.4-27.3-4.6
				c-9-2.2-18-1.6-27.1-2.6c-37.9-3.9-75.8-3.3-113.9-3.3C378.2,612.1,365.8,612,353.5,612.1z"/>
		</g>
	</g>
	<g>
		<polygon class="st1" points="199.4,291.8 212.6,282.6 210.7,274.3 197.4,278.9 191,283.1 191,287.7 		"/>
		<g id="XMLID_207_">
			<g id="XMLID_210_">
				<g id="XMLID_220_">
					<g id="XMLID_222_">
						<path class="st2" d="M74.4,646.7c-1.4-1.5-2.9-2.3-4.7-2c-1.7,0.3-3.3,1.4-4,3c-0.5,1.1-0.6,2.2-0.7,3.4
							c-0.5,6-0.5,20.3,7.5,22.3c3.4,0.9,6.1-4.5,7-7.5C81,661.3,79,651.7,74.4,646.7z"/>
					</g>
					<g id="XMLID_221_">
						<path class="st1" d="M77.3,556.1l-0.4,36.6c0.5,16.3-2.1,32.6-1.6,48.9c0.1,3.7,1.1,7.7,0.1,11.4c-0.9,3.6-3.9,4.3-6.9,2.4
							c-4.1-2.5-3.4-8.2-4.1-12.4c-1.9-11.5-4-23-6-34.5c-0.9-5.6,1-13.5,0.6-19.3l-5.9-30.7L77.3,556.1z"/>
					</g>
				</g>
				<g id="XMLID_219_">
					<polygon class="st3" points="35.4,497 51.4,567.8 54.7,634.6 80,634 86.9,447 37.9,447.9 					"/>
				</g>
				<g id="XMLID_214_">
					<g id="XMLID_216_">
						<g id="XMLID_218_">
							<path class="st2" d="M110.6,642.4c-1.4-1.4-3-2.1-4.8-1.8c-1.7,0.4-3.2,1.6-3.8,3.2c-0.4,1.1-0.5,2.3-0.5,3.5
								c-0.2,6,0.4,20.3,8.5,21.9c3.4,0.7,6.1-1.9,6.8-5C117.8,659.6,115.3,647.1,110.6,642.4z"/>
						</g>
						<g id="XMLID_217_">
							<path class="st1" d="M97.2,561.3l2.1,36.6c0.2,10.2,1.5,20.2,2.6,30.3c1,9.4-0.5,19.1,4.4,27.7c1.5,2.7,4.6,4.5,6.8,1.2
								c1.7-2.5,0.7-6.7,1-9.5c1.3-11.6,2.9-23.1,4.3-34.7c0.7-5.7-1.6-13.5-1.5-19.2l4.5-30.9L97.2,561.3z"/>
						</g>
					</g>
					<g id="XMLID_215_">
						<polygon class="st3" points="129.2,492.6 131.3,561.4 120.5,630.8 94.8,631.6 95.9,556.4 82.3,494 77.8,453.2 118.5,448.4 
													"/>
					</g>
				</g>
				<g id="XMLID_213_">
					<polygon class="st4" points="97,307.8 53,306.7 27.5,354.1 36.6,398.5 38.2,451.6 100.9,452.4 121.5,449.1 116,392.4 
						118.9,323.1 					"/>
				</g>
				<g id="XMLID_212_">
					<polygon class="st4" points="51.6,310 15.9,364.3 21.3,394.6 76.5,432.9 86.9,423.8 50,377.1 51.4,347.6 					"/>
				</g>
				<g id="XMLID_211_">
					<polygon class="st4" points="94.3,338.4 136.5,353.7 160.9,347.7 203.2,292.3 188.5,285.9 144.1,323.9 104,311.9 					"/>
				</g>
			</g>
			<g id="XMLID_209_">
				<polygon class="st1" points="66,307.5 79.6,326.8 86.1,326.3 96.7,306.7 				"/>
			</g>
			<g id="XMLID_208_">
				<polygon class="st1" points="76.8,426.1 76.6,433.5 89.7,438.2 97.2,432.5 97.2,423.9 89.9,423.5 89.7,421.6 87.3,420.1 				"/>
			</g>
		</g>
		<path class="st1" d="M82.1,268.8c2.9-2.5,6.1-3,9.7-3c1.7,0,2.3,0.4,3.2,0.3c0.4-0.1,0.9-0.3,1.5-0.7c1.3-0.8,2.5-2.9,3.1-4.7
			c3.4,2.1,5.8,6,6.5,11.8c0.7,6.4,0.7,13.1-1.5,19.5c-2.2,6.4-6.8,12.4-12.9,14.7c-0.4,0.1-0.7,0.3-1.1,0.4c-2.6,0.8-5.1,1-7.3,0.7
			l-7.6-3.6c-0.4-0.3-0.7-0.7-1.1-1C72.1,292.4,74.9,275.2,82.1,268.8z"/>
		<path class="st5" d="M18.8,400.1c0.6,3.4,2.3,6.5,4.7,8.9c0.2-1.2,0.4-2.3,0.6-3.5c-0.2,1.2-0.4,2.3-0.6,3.5c1.6,1.6,3.4,3,5.3,4
			c5,2.7,10.8,3.5,16.4,3.5c4.5,0,9.1-0.5,13.6,0.4s8.8,3.9,9.9,8.2c0.6,2.4,0.4,5.5,2.5,6.8c1,0.6,2.2,0.7,3.4,0.7
			c3.6,0.1,7.7,0,10.1-2.6c3.7-4.1,1.6-12.4,6.6-14.7c1.5-0.7,3.2-0.6,4.8-0.9c6.8-1.2,10.1-8.9,9.5-15.9c-0.1-1.5-0.4-2.9-0.9-4.3
			c-2.8-7.9-9.3-13.7-14.3-20.4c-9.6-13.1-16.2-30.7-10.2-46.2c0.6-1.5,1.2-2.9,1.6-4.4c0.2-0.8,0.4-1.7,0.4-2.5
			c0.1-4.6-3.4-8.4-5.6-12.5c-0.2-0.4-0.4-0.8-0.6-1.2c-0.4-1-0.8-2.2-1.1-3.4c0-0.2-0.1-0.4-0.1-0.6c-6.8-6.8-9.6-19.5-5.1-29
			c0.3-0.5,0.5-1.1,0.8-1.6c-0.3,0.5-0.6,1-0.8,1.6c-4.5,9.5-1.8,22.1,5.1,29c-2.5-10.8,0.2-28,7.5-34.4c2.9-2.5,6.1-3,9.7-3
			c1.7,0,2.3,0.4,3.2,0.3c0.4-0.1,0.9-0.3,1.5-0.7c1.3-0.8,2.5-2.9,3.1-4.7c3.4,2.1,5.8,6,6.5,11.8c0.7,6.4,0.7,13.1-1.5,19.5
			c-2.2,6.4-6.8,12.4-12.9,14.7c-0.4,0.1-0.7,0.3-1.1,0.4c0.3,0.5,0.7,1.1,1.2,1.6c3.3,3.6,8.6,4.5,13.5,5.1
			c0.6,0.1,1.2,0.1,1.8-0.1c0.9-0.4,1.4-1.4,1.4-2.4c0-1-0.3-1.9-0.6-2.9c-2.8-9.9,2.2-21.2,3-31.1c0.8-9.9-1.2-20.8-9.2-27.5
			c-1.4,0.4-2.7,0.9-3.9,1.5c-0.1-0.2-0.3-0.3-0.4-0.5c-11.6-13.9-27.9-2-36.6,8.6c-7.2,8.7-13.3,18.8-16,29.8
			c-2.6,10.4-3.4,25.6-2.4,36.2c0.6,6.2,3.1,12.3,4.4,18.3c0.8,3.8,1.2,7.5,0.4,11.3c-1.7,7.9-7.9,13.7-14,19.1
			c-0.6,1.4-1.1,2.9-1.7,4.3c-0.5,1.5-1.1,2.9-1.6,4.4c-0.3,1-0.7,2-1,3c0.3-1,0.7-2,1-3c0.5-1.5,1.1-3,1.6-4.4
			c0.5-1.5,1.1-2.9,1.7-4.3c-0.8,0.8-1.7,1.5-2.5,2.3C23.9,382.8,17.2,391.1,18.8,400.1z M79.5,262.8c0.9-0.6,1.8-1.1,2.8-1.6
			C81.3,261.7,80.4,262.2,79.5,262.8z"/>
	</g>
	<g>
		<polygon class="st6" points="230.4,183.5 204.8,236.8 204.8,161.4 455.5,4.9 		"/>
		<polygon class="st3" points="204.8,162 355.4,83.9 229.7,185 205,235.9 		"/>
		<polygon class="st6" points="204.8,236.8 229.6,184.4 454.9,5.7 		"/>
		<g>
			<polygon class="st7" points="454.9,5.7 455.5,4.9 452.6,7.2 			"/>
			<polygon class="st8" points="454.9,5.7 452.6,7.2 229.7,184 229.4,184.2 301.3,248.7 			"/>
			<polygon class="st8" points="455.5,4.9 143.1,106.7 204.4,161.7 452.6,7.2 			"/>
		</g>
	</g>
	<g>
		<g>
			<polygon class="st9" points="300.8,659.9 299.8,667.7 314.4,674.5 323.3,670.7 316.4,661.9 301.8,652 			"/>
			<g>
				<polygon class="st10" points="300.3,657.2 311.6,557.6 298,446.1 301.1,422.4 361.7,420.1 363.9,458.7 353.7,557.8 315.4,662.3 
									"/>
			</g>
			<polygon class="st8" points="367.4,309.9 397.8,318.2 433.1,380.7 416.4,396.1 392.9,368.3 			"/>
			<g>
				<polygon class="st10" points="406.1,431.3 406.3,531.8 386,661.2 371.5,661 363.5,541.4 344.7,421.6 				"/>
				<polygon class="st9" points="371.5,667.2 387.2,672.2 395.1,667.4 387.3,659.5 371.6,659.3 				"/>
			</g>
			<g>
				<path class="st8" d="M291.8,465.5c0.1-4.4,0.4-8,0.4-9.3c0.3-11.7,1.4-23.3,2.8-34.9c1.3-10.4,3-36.2,4.7-46.5
					c1.5-8.5,6.6-29.8,10.3-37.7c9.2-19.7,6.4-21.5,46.8-27.3c17.7-2.6,21.9,8.5,36.4,21.2c1.4,1.3,1.3,8.7,1.7,10.7
					c0.6,3.5,1.2,6.9,1.9,10.4c0.6,2.7,1.2,5.4,1.9,8.1l0,0c0,0,12.2,55.3,20.2,67c8,11.7,24.6,28.2-3.1,38.2
					c-4.9,1.6-9.9,3.1-15,3.9c0,0-22.7-2.5-34.4-2.4c-10.8,0.1-21.6,1.2-32.1,3c-7.1,1.2-14.3,2.9-20.6,6.2
					c-6,3.2-10.4,7.8-16.5,11.1c-0.6,0.3-1.2,0.6-1.9,0.5C291.7,487,291.5,474.6,291.8,465.5z"/>
			</g>
			<g>
				<path class="st1" d="M356.8,315.2c-2,1-6.9,1.4-11.9-0.6c-1-0.4-1.7-1.4-1.7-2.5c0-3,0.3-6.1,0.7-9.1c-3.8-1.3-8.1-3.3-8.8-7.2
					c-0.2-1.2,0-2.5,0.2-3.7c0.9-5.1,1.8-10.2,2.7-15.4c0.3-1.8,0.6-3.6,1.6-5.1c1.7-2.7,5-3.8,8.1-4.4c7.9-1.4,16.6,0.3,22.7,5.5
					c1.6,1.4,3.1,3,3.8,5.1c1.1,3.1,0.3,6.5-0.6,9.7c-0.8,2.9-1.5,5.9-2.3,8.8c-0.9,3.4-2.2,7.2-5.4,8.5c-1.7,0.7-3.8,0.5-5.4,1.5
					C357.9,308.1,358.3,312.2,356.8,315.2z"/>
				<path class="st11" d="M402.6,264.1c0.8-1.3,1.6-2.5,2.6-3.7c2-2.5,4.5-4.7,6.2-7.4c1.6-2.8,2.2-6.6,0.2-9.1
					c-1.3-1.7-3.3-2.5-5.3-3.1c-6.6-1.9-13.7-2.1-20.3-0.4c-6.3,1.6-12,4.3-18.4,1.9c-6-2.2-10.3-1.3-16.6,0.9
					c-6.8,2.4-15.9,3-22,6.4c-2.6,1.4-4.6,3.7-6.2,6.1c-5.5,8.5-5.5,20.3-0.1,28.8c1.2,1.9,2.7,3.7,4.2,5.3c3.2,3.5,7,7.7,11.4,9
					c0.1-3.9-3.5-16.3-0.5-19.6c4.8-5.1,15.6-3.3,21.6-2.1c6.5,1.4,12.3,6,18.7,7c4.6,0.7,10.5-1.6,14.5-4
					C397.5,277.4,399.8,268.8,402.6,264.1z"/>
			</g>
			<polygon class="st8" points="323.3,317.2 298,339.3 269.9,398.4 305.4,440.6 311.6,417 			"/>
		</g>
	</g>
	<g>
		<g>
			<g>
				<polygon class="st3" points="496,339.3 184.4,362.8 347.5,448.2 				"/>
				<path class="st3" d="M174.6,369.9l15.1,200.7l292.1-22c22.1-1.7,38.6-22.2,36.8-45.8l-11.9-157.9L348.5,461L174.6,369.9z"/>
				<path class="st6" d="M440.1,343.5c-0.2,2.7-0.2,5.4,0,8.2c0.6,8.5,3.2,16.4,7.3,23.3l48.6-35.6L440.1,343.5z"/>
				<path class="st6" d="M497.7,401.2c4.6-0.3,9-1.2,13.1-2.6l-4-53.6l-52.9,38.8C464.6,395.5,480.5,402.5,497.7,401.2z"/>
			</g>
			
				<ellipse transform="matrix(0.7071 -0.7071 0.7071 0.7071 -92.1115 457.6353)" class="st12" cx="506.4" cy="340" rx="53.7" ry="53.7"/>
			<g>
				<polygon class="st13" points="517.5,369.4 505,370.1 502.5,328.7 494.6,329.2 493.9,316.6 514.3,315.4 				"/>
			</g>
		</g>
	</g>
	<g>
		<g id="XMLID_187_">
			<g id="XMLID_189_">
				<g id="XMLID_195_">
					<polygon class="st14" points="670.5,344.9 647.7,390.6 623,395.5 561.7,368.7 572.3,356.7 628.2,366.9 650.5,325 					"/>
				</g>
				<g id="XMLID_204_">
					<g id="XMLID_206_">
						<path class="st2" d="M695.2,654.4c1.4-1.5,2.9-2.3,4.7-2c1.7,0.3,3.3,1.4,4,3c0.5,1.1,0.6,2.2,0.7,3.4
							c-0.1-1.8,1.1,20-7.5,22.3c-3.4,0.9-6.1-1.5-7-4.5C688.6,672,690.6,659.4,695.2,654.4z"/>
					</g>
					<g id="XMLID_205_">
						<path class="st1" d="M692.3,564.1l0.4,36.5c-0.5,16.2,2,32.5,1.6,48.8c-0.1,3.7-1.1,7.7-0.1,11.4c0.9,3.6,3.9,4.3,6.9,2.4
							c4-2.5,3.4-8.2,4.1-12.4c1.8-11.5,4-22.9,6-34.4c0.9-5.6-1-13.5-0.6-19.2c0,0,5.9-30.6,5.9-30.6L692.3,564.1z"/>
					</g>
				</g>
				<g id="XMLID_203_">
					<polygon class="st15" points="734.1,505 718.2,575.7 714.8,642.4 689.6,641.8 682.7,455.2 731.6,456.1 					"/>
				</g>
				<g id="XMLID_198_">
					<g id="XMLID_200_">
						<g id="XMLID_202_">
							<path class="st2" d="M659.1,653.1c1.4-1.4,3-2.1,4.8-1.7c1.7,0.4,3.2,1.6,3.8,3.2c0.4,1.1,0.5,2.3,0.5,3.4
								c-0.1-1.9-0.1,20.2-8.5,21.8c-3.4,0.7-6-1.9-6.8-5C651.9,670.3,654.4,657.8,659.1,653.1z"/>
						</g>
						<g id="XMLID_201_">
							<path class="st1" d="M672.4,569.2l-2.1,36.5c-0.2,10.1-1.5,20.2-2.6,30.3c-1,9.4,0.5,19.1-4.3,27.6c-1.5,2.7-4.6,4.4-6.8,1.2
								c-1.7-2.5-0.7-6.7-1-9.5c-1.3-11.6-2.9-23.1-4.3-34.6c-0.7-5.7,1.6-13.5,1.5-19.2c0,0-4.5-30.9-4.5-30.9L672.4,569.2z"/>
						</g>
					</g>
					<g id="XMLID_199_">
						<polygon class="st15" points="640.5,500.7 638.4,569.3 649.2,638.6 674.9,639.4 673.7,564.3 687.3,502.1 691.8,461.4 
							651.2,456.6 						"/>
					</g>
				</g>
				<g id="XMLID_197_">
					<polygon class="st16" points="672.7,316.3 716.5,315.2 741.9,362.5 732.9,406.8 731.3,459.8 668.8,460.6 648.2,457.3 
						653.7,400.7 650.5,325 					"/>
				</g>
				<g id="XMLID_196_">
					<polygon class="st17" points="718,318.5 753.6,372.7 748.2,402.9 693.1,441.1 682.7,432 719.6,385.4 718.2,356 					"/>
				</g>
				<g id="XMLID_190_">
					<g id="XMLID_194_">
						<path class="st1" d="M675.4,279.5c6.6-19.2,32-12,37.2,5.1c3.4,11.2-5.2,25.6-16.8,28.9c-0.1,0.4-0.1,0.9-0.1,1.2
							c0,1.8-0.2,3.6-0.5,5.3c-0.1,0.7-10.2-1.3-11.3-1.5c-0.4-0.1-0.8-0.2-1-0.5c-0.4-0.6,0.3-2.5,0.3-3.2c0.1-0.8,0.2-1.7,0.3-2.5
							c-5.7-2.8-9.3-8.7-10.3-14.8C672.2,291.5,673.4,285.3,675.4,279.5z"/>
					</g>
					<g id="XMLID_191_">
						<g id="XMLID_193_">
							<path class="st6" d="M692,262.2c1.4,1.4,1.9,3.3,2.3,5.2c0.2,1.1,0.4,2.2,0.2,3.3c-0.9,4.4-5.3,4.1-8.6,5.5
								c-4.1,1.7-7.7,4.9-10,8.6c-3.6,5.8-2,13.2-0.5,19.5c0.5,2.2,1.6,5.6-0.2,7.6c-1.8,2-5.8,1.7-8,0.7c-1.9-1-3.5-2.7-5.6-3.1
								c-2.2-0.4-5.3,0.6-6.3-1.4c-0.3-0.6-0.3-1.3-0.7-1.8c-1.2-1.8-4.3,0.3-6.1-0.9c-1.1-0.8-1.1-2.4-0.7-3.7
								c0.4-1.3,1-2.6,0.7-3.9c-0.2-1.1-1-2-1.5-3.1c-1-2-0.7-4.7,0.8-6.4c2.8-3.2,8.1-2.6,11.1-5.6c1.5-1.6,2.1-3.8,2.7-6
								c0.6-2.1,1.3-4.4,2.9-5.8c2-1.8,5-1.5,7-3.6c1.2-1.2,2-2.9,3.3-4c1.7-1.4,5.2-2.5,7.3-3.3C685.6,258.8,689.4,259.6,692,262.2
								z"/>
						</g>
						<g id="XMLID_192_">
							<path class="st6" d="M708,292.8c0.1,6.3-3,13.2-0.1,18.7c2.9,5.6,10.3,6.6,16.5,6.9c1,0,14.2,1.2,14.3,0.9
								c1-4.4,2-8.9,4.3-12.8c2.3-3.9,6.2-7.1,10.6-7.3c-1.3-0.2-1.9-1.8-1.8-3.1c0.1-1.3,0.8-2.5,1.2-3.8c1-3.1,0-6.7-2.3-8.9
								c-4.7-4.3-13.1-2.5-17.1-7.5c-2.5-3.1-2.2-7.6-3.5-11.4c-2.5-7.3-10.5-8.8-16.5-12.1c-6.3-3.5-12.3-5.4-19.5-4.2
								c-9,1.5-15.7,10.7-12.3,19.4c4.5,11.1,22.3,10.1,25.7,21.4C707.9,290.3,708,291.6,708,292.8z"/>
						</g>
					</g>
				</g>
			</g>
			<g id="XMLID_188_">
				<polygon class="st15" points="703.6,316 690,335.2 683.6,334.7 672.9,315.2 				"/>
			</g>
		</g>
		<g>
			<g>
				<path class="st13" d="M634.6,460.6c-1.1,0-2.1-0.4-2.8-1.2l-31-31.8l-19.2,24.6c-0.7,0.9-1.7,1.4-2.7,1.4c-1.7,0-3.4-1.2-4-2.8
					l-45.6-122.8c-0.5-1.5-0.2-2.9,0.9-3.9c0.7-0.9,1.6-1.3,2.7-1.3c0.5,0,1,0.1,1.5,0.3l121.6,48.6c1.5,0.6,2.5,1.8,2.7,3.3
					c0.2,1.5-0.5,2.9-1.7,3.8l-24.7,18.3l30.9,31.7c1.5,1.6,1.5,4.1,0,5.6l-25.6,25C636.7,460.2,635.6,460.6,634.6,460.6
					L634.6,460.6z M600.4,417.7c1.1,0,2.2,0.4,2.9,1.2l31.4,32.2l19.9-19.4l-31.3-32.1c-0.8-0.8-1.2-1.9-1.1-3
					c0.1-1.2,0.8-2.3,1.8-3.1l22.6-16.8l-106.7-42.7l40,107.7l17.7-22.6C598.2,418.2,599.3,417.7,600.4,417.7z"/>
				<g>
					<path class="st18" d="M664.1,427.8l-15-15.3l-14.8-15.1l10.3-7.6l13-9.7c1.7-1.3,2.6-3.2,2.3-5.2c-0.3-2-1.6-3.7-3.6-4.5
						l-41.3-16.5l-65.3-26.1l-8.9-3.6l-6.1-2.4c-0.7-0.3-1.3-0.4-2-0.4c-1.5,0-2.8,0.7-3.8,1.8c-1.5,1.4-1.9,3.5-1.2,5.5l1.6,4.4
						l13.9,37.3l24.5,66l2.8,7.6l2.8,7.5c0.8,2.2,3.1,3.8,5.4,3.8c1.6,0,2.9-0.7,3.9-1.9l9.8-12.5L601,430l11.6,11.9l14,14.3
						l4.2,4.3c1,1,2.4,1.6,3.9,1.6c1.5,0,2.9-0.6,3.9-1.6l12.6-12.3l13-12.7C666.3,433.5,666.3,430,664.1,427.8z M662,433.4
						c-8.5,8.3-17.1,16.7-25.6,25c-0.5,0.5-1.1,0.7-1.8,0.7c-0.6,0-1.2-0.2-1.7-0.7c-1.4-1.4-2.8-2.9-4.2-4.3
						c-9.3-9.6-18.7-19.1-28-28.7c-6.8,8.7-13.5,17.3-20.3,26c-0.4,0.6-1,0.8-1.6,0.8c-1.1,0-2.2-0.8-2.6-1.9
						c-1.9-5-3.7-10.1-5.6-15.1c-8.2-22-16.3-44-24.5-66c-5.2-13.9-10.3-27.8-15.5-41.7c-0.4-1-0.1-1.9,0.6-2.4
						c0.4-0.5,0.9-0.9,1.6-0.9c0.3,0,0.6,0.1,0.9,0.2c5,2,10,4,14.9,6c21.8,8.7,43.6,17.4,65.3,26.1c13.8,5.5,27.6,11,41.3,16.5
						c2,0.8,2.4,3.2,0.6,4.5c-8.7,6.4-17.4,12.9-26,19.3c0.7,0.7,1.5,1.5,2.2,2.2c10,10.2,20,20.5,29.9,30.7
						C662.9,430.8,663,432.5,662,433.4z"/>
					<path class="st13" d="M624.4,398.5c-1.2-1.2-0.8-3,0.5-3.9c8.3-6.1,16.5-12.3,24.8-18.4c-3.5-1.4-7.1-2.8-10.6-4.2
						c-21.8-8.7-43.6-17.4-65.3-26.1c-12.1-4.9-24.3-9.7-36.4-14.6c1.2,3.4,2.5,6.7,3.7,10.1c8.2,22,16.3,44,24.5,66
						c4.6,12.5,9.3,24.9,13.9,37.4c6.4-8.2,12.9-16.5,19.3-24.7c0.4-0.5,1-0.7,1.7-0.7c0.7,0,1.4,0.3,1.8,0.7
						c1.4,1.4,2.8,2.9,4.2,4.3c9.4,9.6,18.8,19.3,28.2,28.9c7.4-7.2,14.7-14.4,22.1-21.5c-0.8-0.8-1.6-1.7-2.4-2.5
						C644.3,418.9,634.4,408.7,624.4,398.5z M634.7,448.9l-6.2-6.4l-19.9-20.4l-0.6-0.7l-3.6-3.6c-1-1-2.5-1.6-4-1.6
						c-1.6,0-3.1,0.7-4,1.9l-9.7,12.4l-6.4,8.1l-4.8-12.9l-7.2-19.4l-24.5-66l-1.4-3.7l30.2,12.1l32.7,13.1l32.7,13.1l5.4,2.2
						l0.2,0.1l-7.9,5.8l-12.6,9.4c-1.4,1-2.3,2.6-2.4,4.2c-0.1,1.6,0.4,3,1.6,4.2l15,15.3l15,15.3l0.3,0.3L634.7,448.9z"/>
				</g>
			</g>
			<polygon class="st8" points="533,326.9 578.6,449.7 600.5,421.7 634.6,456.7 647.4,444.2 660.2,431.7 626.1,396.7 654.7,375.5 
							"/>
		</g>
		<g id="XMLID_186_">
			<polygon class="st1" points="670.6,436.8 670.8,444.2 657.8,448.9 650.2,443.2 650.2,434.6 657.5,434.2 657.7,432.3 660.1,430.8 
							"/>
		</g>
	</g>
	<polygon class="st1" points="279.6,359.8 287,350 302,347.1 310,355.1 295.7,370 	"/>
	<polygon class="st1" points="398.9,345.6 406.3,335.7 421.2,332.8 429.3,340.9 415,355.8 	"/>
</g>
</svg>
