<?xml version="1.0" encoding="utf-8"?>
<!-- Generator: Adobe Illustrator 28.2.0, SVG Export Plug-In . SVG Version: 6.00 Build 0)  -->
<svg version="1.1" id="Layer_1" xmlns="http://www.w3.org/2000/svg" xmlns:xlink="http://www.w3.org/1999/xlink" x="0px" y="0px"
	 viewBox="0 0 500 457.6" style="enable-background:new 0 0 500 457.6;" xml:space="preserve">
<style type="text/css">
	.st0{fill:#E0E0E0;}
	.st1{fill:#EBEBEB;}
	.st2{fill:#F0F0F0;}
	.st3{fill:#E6E6E6;}
	.st4{display:none;}
	.st5{display:inline;}
	.st6{display:inline;fill:#E0E0E0;}
	.st7{fill:#F5F5F5;}
	.st8{opacity:0.3;}
	.st9{fill:#FFFFFF;}
	.st10{fill:#407BFF;}
	.st11{opacity:0.9;fill:#FFFFFF;enable-background:new    ;}
	.st12{fill:#263238;}
	.st13{fill:#F2B64B;}
	
		.st14{opacity:0.3;fill:none;stroke:#000000;stroke-width:0.5;stroke-linecap:round;stroke-linejoin:round;stroke-miterlimit:10;enable-background:new    ;}
	.st15{opacity:0.3;enable-background:new    ;}
	.st16{display:none;fill:#407BFF;}
	.st17{opacity:0.8;fill:#FFFFFF;enable-background:new    ;}
	.st18{opacity:0.2;fill:#263238;enable-background:new    ;}
	.st19{opacity:0.7;fill:#FFFFFF;enable-background:new    ;}
	.st20{fill:#4B506F;}
	.st21{fill:#213067;}
	.st22{opacity:0.1;enable-background:new    ;}
	.st23{fill:#2EB758;}
	.st24{fill:none;stroke:#407BFF;stroke-width:0.5;stroke-linecap:round;stroke-linejoin:round;stroke-miterlimit:10;}
	.st25{fill:#E9B376;}
	.st26{opacity:0.2;enable-background:new    ;}
	.st27{fill:#D58745;}
	
		.st28{opacity:0.2;fill:none;stroke:#000000;stroke-width:0.5;stroke-linecap:round;stroke-linejoin:round;stroke-miterlimit:10;enable-background:new    ;}
	.st29{fill:#C15854;}
	.st30{fill:#996633;}
	.st31{opacity:0.7;}
	.st32{fill:#484E7F;}
	.st33{opacity:0.7;fill:#263238;enable-background:new    ;}
	.st34{opacity:0.4;enable-background:new    ;}
	.st35{fill:#6D3939;}
	.st36{opacity:0.8;enable-background:new    ;}
</style>
<g id="Background_complete">
	<g>
		<g>
			<g>
				<path class="st0" d="M69,405.7c0-0.5-1.8-53.9-10.5-62.3c-8.4-8.2-18.1-0.3-18.5,0l-0.9-1c0.1-0.1,11-9,20.3,0
					c9.1,8.8,10.8,61,10.9,63.2L69,405.7z"/>
			</g>
			<g>
				<path class="st0" d="M69.8,416.2c-0.1-0.6-5.9-64,17.2-90.6l1,0.9c-22.8,26.1-17,88.9-16.9,89.6L69.8,416.2z"/>
			</g>
			<g>
				<path class="st0" d="M68.9,409.5l-1.4-0.1c0-0.7,4.5-72-12.4-87.7l0.9-1C73.5,336.8,69.1,406.5,68.9,409.5z"/>
			</g>
			<g>
				<path class="st0" d="M71.1,409.5h-1.4c0-2,0.6-48.2,13.7-55.7c2.9-1.7,5.8-2,8.5-0.8c7.9,3.3,11.9,17.4,12,18l-1.3,0.4
					c0-0.1-3.9-14.1-11.2-17.1c-2.3-1-4.8-0.7-7.3,0.8C71.7,362.1,71.1,409,71.1,409.5z"/>
			</g>
			<g>
				<path class="st0" d="M66,409.5l-1.4-0.1c0-0.4,2-36.5-7.8-49.3c-2.4-3.1-4.9-4.6-7.6-4.4c-6.4,0.4-11.8,9.8-11.8,9.9l-1.2-0.7
					c0.2-0.4,5.8-10.1,12.9-10.6c3.2-0.2,6.2,1.4,8.8,4.9C68,372.5,66.1,408,66,409.5z"/>
			</g>
			<g>
				<path class="st0" d="M68.2,414.4c-0.3-3.5-6.4-86.1,4.4-100.6l1.1,0.8c-10.5,14.1-4.2,98.9-4.1,99.7L68.2,414.4z"/>
			</g>
		</g>
		<g>
			<path class="st1" d="M94.9,361.3c0,0-6.5,2.4-4.5,8c1.9,5.6,22.3,14.9,22.3,14.9s8.5-7.8,0.7-20.6
				C105.5,350.8,95.1,357.3,94.9,361.3z"/>
		</g>
		<g>
			<path class="st1" d="M66.8,350.6c0,0,6.9-0.3,7.3,5.6s-14.9,22.3-14.9,22.3s-10.9-3.9-8.6-18.7C53,345,65.1,346.9,66.8,350.6z"/>
		</g>
		<g>
			<path class="st1" d="M61,322.2c0,0,4.6-0.5,4.2-3.3s-17.8-10-28.1,1.6c0,0,6.6,11.3,16.1,11.5C62.8,332.2,61,322.2,61,322.2z"/>
		</g>
		<g>
			<path class="st1" d="M69.5,315.5c0,0-4.1,2-5.3-0.6C63,312.3,74,297,88.9,301.4c0,0,0.4,13.1-7.6,18.3
				C73.3,324.8,69.5,315.5,69.5,315.5z"/>
		</g>
		<g>
			<path class="st1" d="M47.9,359c0,0,3.2-2.6-0.2-3.8s-20.2-0.9-20.3,15.7c0,0,19.5,3.2,21.9-3.1C51.6,361.5,47.9,359,47.9,359z"/>
		</g>
		<g>
			<path class="st1" d="M87.6,321.8c0,0-3.2-2.6,0.2-3.8s20.2-0.9,20.3,15.7c0,0-19.5,3.2-21.9-3.1
				C83.9,324.3,87.6,321.8,87.6,321.8z"/>
		</g>
		<g>
			<path class="st1" d="M77.3,335.2c0,0-0.3-3.1,2.2-1.9s11.2,10.6,2.2,19.6c0,0-12.2-9-10-13.7C73.9,334.4,77.3,335.2,77.3,335.2z"
				/>
		</g>
		<g>
			<path class="st1" d="M45,339.6c0,0,1.9-2.5-0.9-2.8c-2.8-0.3-15.2,3-12.3,15.4c0,0,15.1-1.1,15.8-6.3S45,339.6,45,339.6z"/>
		</g>
		<polygon class="st2" points="83.8,433.4 53.3,433.4 45.2,396 91.2,396 		"/>
		<rect x="42.5" y="395.4" class="st3" width="51.3" height="10.8"/>
	</g>
	<g class="st4">
		<g class="st5">
			<g>
				<g>
					<g>
						<path class="st0" d="M443.9,323.9H263.2c-3.2,0-5.9-2.6-5.9-5.9V54.7c0-3.2,2.6-5.9,5.9-5.9h180.7c3.2,0,5.9,2.6,5.9,5.9V318
							C449.8,321.2,447.2,323.9,443.9,323.9z M449.5,54.7c0-3.1-2.5-5.6-5.6-5.6c0,0-180.7,0-180.7,0c-3.1,0-5.6,2.5-5.6,5.6V318
							c0,3.1,2.5,5.6,5.6,5.6h180.7c3.1,0,5.6-2.5,5.6-5.6"/>
					</g>
				</g>
				<g>
					<g>
						<path class="st0" d="M235.5,323.9H54.7c-3.2,0-5.9-2.6-5.9-5.9V54.7c0-3.2,2.6-5.9,5.9-5.9h180.7c3.2,0,5.9,2.6,5.9,5.9V318
							C241.4,321.2,238.7,323.9,235.5,323.9z M49.1,318c0,3.1,2.5,5.6,5.6,5.6h180.7c3.1,0,5.6-2.5,5.6-5.6V54.7
							c0-3.1-2.5-5.6-5.6-5.6c0,0-180.7,0-180.7,0c-3.1,0-5.6,2.5-5.6,5.6"/>
					</g>
				</g>
			</g>
			<g>
				<g>
					<rect y="384.9" class="st0" width="500" height="0.2"/>
				</g>
			</g>
		</g>
		<rect x="51.7" y="399.2" class="st6" width="16.1" height="0.2"/>
		<rect x="170.4" y="396.5" class="st6" width="53.5" height="0.2"/>
		<rect x="68.7" y="408.5" class="st6" width="36.2" height="0.2"/>
		<rect x="378.4" y="396.4" class="st6" width="43.2" height="0.2"/>
		<rect x="430.5" y="396.4" class="st6" width="6.3" height="0.2"/>
		<rect x="316.2" y="402.6" class="st6" width="53.9" height="0.2"/>
	</g>
	<g>
		<g>
			<g>
				<g>
					<path class="st7" d="M178.2,63.8c12.6-1.4,22.3-8.5,26.5-20.4c4.2-12,2.9-26.3-6.1-35.2C194.1,3.6,188,0.3,181.5,0
						c-9.2-0.4-18,5.6-22.5,13.6s-6.1,16.3-4.4,25.3c1.6,9,6.9,20,19.3,24.3c0,0-4,6.8-2.2,7.8c1.8,1.1,4.2-2.8,4.2-2.8
						s4.1,5.3,4.6,2.8C181.1,67.4,178.2,63.8,178.2,63.8z"/>
				</g>
				<g class="st8">
					<path class="st9" d="M161.8,34.8c-1.7,0.3-3.4,0.5-5.2,0.8c-1.1-5.7-0.4-11.8,2-17.2s6.4-10,11.3-13.1c0,0-5.5,8-7.1,14.9
						C161.1,27.8,161.8,34.8,161.8,34.8z"/>
				</g>
			</g>
		</g>
	</g>
	<g>
		<g>
			<g>
				<g>
					<path class="st1" d="M334.6,84.9c10-7.4,14.7-18.3,12.3-30.5s-10.6-23.6-22.6-26.8c-6.2-1.6-13-1.3-18.6,1.7
						c-8,4.3-12.5,13.6-12.3,22.7s2.9,16.8,8.8,23.6c5.8,6.8,15.8,13.5,28.4,11c0,0,0,7.7,2,7.7c2.1,0,2.1-4.5,2.1-4.5
						s6.1,2.5,5.3,0.1C338.8,86.5,334.6,84.9,334.6,84.9z"/>
				</g>
				<g class="st8">
					<path class="st9" d="M306.4,68.5c-1.3,1.1-2.6,2.1-4,3.2c-3.8-4.3-6.2-9.8-6.9-15.5c-0.7-5.7,0.4-11.6,3.1-16.7
						c0,0-0.7,9.5,1.4,16.2C302.3,62.9,306.4,68.5,306.4,68.5z"/>
				</g>
			</g>
		</g>
	</g>
	<g>
		<g>
			<g>
				<g>
					<path class="st1" d="M101.9,117.3c9.4-4.6,15.1-12.8,15.1-23.3s-5-21.3-14.4-25.8C97.7,65.9,92,65,86.9,66.6
						c-7.3,2.2-12.5,9.3-13.8,16.8s-0.3,14.4,3.5,21c3.7,6.6,10.9,13.7,21.8,13.7c0,0-1.3,6.4,0.4,6.7c1.7,0.3,2.5-3.4,2.5-3.4
						s4.6,3,4.3,1C105.2,119.3,101.9,117.3,101.9,117.3z"/>
				</g>
				<g class="st8">
					<path class="st9" d="M81.2,99.2c-1.3,0.7-2.5,1.4-3.8,2c-2.4-4.2-3.6-9.1-3.2-13.9s2.2-9.5,5.2-13.3c0,0-2.1,7.7-1.4,13.6
						C78.7,93.9,81.2,99.2,81.2,99.2z"/>
				</g>
			</g>
		</g>
	</g>
	<g>
		<path class="st7" d="M54.2,281.3c10,3.2,19.7,1.2,27-6.4c7.2-7.6,11.1-18.8,7.4-28.6c-1.9-5-5.4-9.6-10.2-12
			c-6.8-3.4-15.5-1.9-21.6,2.6s-10.1,10.2-11.9,17.6c-1.8,7.3-1.5,17.4,6.3,24.9c0,0-5.3,3.8-4.3,5.2c1,1.4,4.1-0.7,4.1-0.7
			s1.3,5.4,2.5,3.7C55.2,285,54.2,281.3,54.2,281.3z"/>
	</g>
	<g>
		<g>
			<path class="st1" d="M427.1,291.6c10,3.2,19.7,1.2,27-6.4c7.2-7.6,11.1-18.8,7.4-28.6c-1.9-5-5.4-9.6-10.2-12
				c-6.8-3.4-15.5-1.9-21.6,2.6s-10.1,10.2-11.9,17.6c-1.8,7.3-1.5,17.4,6.3,24.9c0,0-5.3,3.8-4.3,5.2c1,1.4,4.1-0.7,4.1-0.7
				s1.3,5.4,2.5,3.7C428.1,295.3,427.1,291.6,427.1,291.6z"/>
		</g>
		<g class="st8">
			<path class="st9" d="M424.6,264.2c-1.4-0.4-2.8-0.8-4.2-1.2c1.1-4.7,3.7-9.1,7.3-12.3s8.2-5.4,13-6c0,0-6.8,4.2-10.4,8.9
				C426.4,258.6,424.6,264.2,424.6,264.2z"/>
		</g>
	</g>
	<g>
		<g>
			<path class="st1" d="M256.2,404.6c8.8-5.8,13.3-14.7,11.8-25.1c-1.4-10.4-7.8-20.4-17.8-23.6c-5.1-1.6-10.9-1.8-15.7,0.5
				c-6.9,3.2-11.1,10.9-11.4,18.5s1.7,14.3,6.3,20.3s12.6,12.1,23.4,10.6c0,0-0.4,6.5,1.3,6.6s2-3.7,2-3.7s5,2.4,4.4,0.4
				C259.7,406.1,256.2,404.6,256.2,404.6z"/>
		</g>
		<g class="st8">
			<path class="st9" d="M233.2,389.4c-1.2,0.8-2.3,1.7-3.5,2.5c-3-3.8-4.7-8.6-5-13.4s0.9-9.7,3.4-13.9c0,0-1,7.9,0.4,13.7
				C230,384.5,233.2,389.4,233.2,389.4z"/>
		</g>
	</g>
	<g>
		<g>
			<path class="st1" d="M307.8,325.7c-9.7,4.1-15.7,12-16.2,22.5s4,21.5,13.2,26.5c4.7,2.5,10.4,3.7,15.6,2.3
				c7.4-1.9,12.9-8.7,14.6-16.1s1-14.3-2.5-21.1c-3.4-6.7-10.3-14.2-21.1-14.7c0,0,1.6-6.3-0.1-6.7s-2.6,3.2-2.6,3.2
				s-4.5-3.3-4.3-1.2C304.6,323.6,307.8,325.7,307.8,325.7z"/>
		</g>
		<g class="st8">
			<path class="st9" d="M327.6,344.8c1.3-0.6,2.6-1.2,3.9-1.9c2.2,4.3,3.1,9.3,2.5,14.1c-0.6,4.8-2.7,9.4-5.9,13.1
				c0,0,2.4-7.6,2.1-13.5C329.9,350.2,327.6,344.8,327.6,344.8z"/>
		</g>
	</g>
	<g>
		<g>
			<g>
				<g>
					<path class="st7" d="M431.9,77.7c10.4-1.1,18.5-7,22-16.9s2.4-21.7-5-29.1c-3.8-3.8-8.9-6.5-14.2-6.7
						c-7.6-0.3-14.9,4.6-18.6,11.2s-5,13.5-3.7,21c1.3,7.4,5.7,16.5,16,20.1c0,0-3.3,5.6-1.8,6.5s3.4-2.3,3.4-2.3s3.4,4.4,3.8,2.4
						C434.4,80.7,431.9,77.7,431.9,77.7z"/>
				</g>
				<g class="st8">
					<path class="st9" d="M418.4,53.7c-1.4,0.2-2.8,0.4-4.3,0.7c-0.9-4.8-0.3-9.8,1.6-14.2s5.3-8.3,9.4-10.8c0,0-4.5,6.6-5.9,12.4
						C417.8,47.9,418.4,53.7,418.4,53.7z"/>
				</g>
			</g>
		</g>
	</g>
</g>
<g id="Background_simple">
	<g>
		<path class="st10" d="M191.5,27.6c-21.6,2.7-42.4,8.5-60.8,17.6C109,56,86.8,72.7,93.3,94.6c12.1,40.4,70.2,41.1,58.6,68.3
			c-13.1,30.8-4.3,66.9,54.6,76.9c112,19.1,247.4-92.5,209.3-153.8C392.2,47.9,306,13.1,191.5,27.6z"/>
		<path class="st11" d="M191.5,27.6c-21.6,2.7-42.4,8.5-60.8,17.6C109,56,86.8,72.7,93.3,94.6c12.1,40.4,70.2,41.1,58.6,68.3
			c-13.1,30.8-4.3,66.9,54.6,76.9c112,19.1,247.4-92.5,209.3-153.8C392.2,47.9,306,13.1,191.5,27.6z"/>
	</g>
</g>
<g id="Shadow">
	<g>
		<g>
			<path class="st7" d="M460.4,436.1c0,3.4-93.5,6.1-208.9,6.1s-208.9-2.7-208.9-6.1s93.5-6.1,208.9-6.1S460.4,432.8,460.4,436.1z"
				/>
		</g>
	</g>
</g>
<g id="Plant">
	<g>
		<g>
			<g>
				<g>
					<path class="st12" d="M432.6,408.1c0-0.5-1.7-49.9-9.7-57.7c-7.8-7.6-16.8-0.3-17.2,0l-0.8-1c0.1-0.1,10.2-8.3,18.8,0
						c8.4,8.2,10,56.5,10.1,58.5L432.6,408.1z"/>
				</g>
				<g>
					<path class="st12" d="M433.3,417.8c-0.1-0.6-5.5-59.3,15.9-83.9l0.9,0.8c-21.1,24.2-15.7,82.3-15.6,82.9L433.3,417.8z"/>
				</g>
				<g>
					<path class="st12" d="M432.5,411.6l-1.3-0.1c0-0.7,4.2-66.7-11.5-81.2l0.9-0.9C436.8,344.3,432.7,408.9,432.5,411.6z"/>
				</g>
				<g>
					<path class="st12" d="M434.6,411.6h-1.3c0-1.8,0.5-44.6,12.7-51.6c2.7-1.5,5.3-1.8,7.9-0.8c7.4,3,11,16.1,11.1,16.7l-1.2,0.3
						c0-0.1-3.6-13-10.4-15.8c-2.1-0.9-4.4-0.6-6.8,0.7C435.1,367.7,434.6,411.1,434.6,411.6z"/>
				</g>
				<g>
					<path class="st12" d="M429.8,411.6l-1.3-0.1c0-0.3,1.8-33.8-7.2-45.6c-2.2-2.9-4.6-4.2-7.1-4c-5.9,0.4-10.9,9.1-10.9,9.2
						l-1.1-0.6c0.2-0.4,5.3-9.3,11.9-9.8c3-0.2,5.7,1.3,8.2,4.5C431.7,377.3,429.9,410.2,429.8,411.6z"/>
				</g>
				<g>
					<path class="st12" d="M431.8,416.1c-0.2-3.2-5.9-79.7,4.1-93.2l1,0.7c-9.7,13.1-3.9,91.5-3.8,92.3L431.8,416.1z"/>
				</g>
			</g>
			<g>
				<path class="st13" d="M458.4,363.4c0,0-6.4,2.3-4.2,7.4c6.1,14.2,20.6,15.8,20.6,15.8s6.8-10.8,1.2-19.1
					C468.3,355.9,458.5,359.7,458.4,363.4z"/>
			</g>
			<g>
				<path class="st13" d="M430.6,357c0,0,6.4-0.3,6.7,5.2c0.4,5.5-13.8,20.7-13.8,20.7s-10.1-3.6-7.9-17.3
					C417.8,351.9,429,353.7,430.6,357z"/>
			</g>
			<g>
				<path class="st13" d="M433.7,325.1c0,0-2.7-0.3-3.7-2.7c-3-7.2,7.3-14.9,21.1-10.8c0,0,0.4,12.1-7,16.9
					C436.6,333.2,433.7,325.1,433.7,325.1z"/>
			</g>
			<g>
				<path class="st13" d="M410.1,362.7c0,0,2.2-3-1.1-3.3c-3.4-0.3-17.9,6.2-14,21.1c0,0,18.7-6.1,19.3-12.3
					C414.8,361.9,410.1,362.7,410.1,362.7z"/>
			</g>
			<g>
				<path class="st13" d="M449.8,330.4c0,0,0.8-2.8,4-3.9c3.2-1.2,14.9-0.4,15.1,14.9c0,0-18.1,3-20.3-2.8S449.8,330.4,449.8,330.4z
					"/>
			</g>
			<g>
				<path class="st13" d="M440.1,343.2c0,0,1.2-2.1,3.5-1s9.2,8.2,2.6,16.7c0,0-12.1-7.3-11.1-12.4
					C436,341.7,440.1,343.2,440.1,343.2z"/>
			</g>
			<g>
				<path class="st13" d="M410.4,346.9c0,0,1.8-2.3-0.8-2.6c-2.6-0.3-14,2.8-11.4,14.2c0,0,14-1.1,14.6-5.8
					C413.4,348,410.4,346.9,410.4,346.9z"/>
			</g>
			<path class="st14" d="M422.3,377.9c-1-7.5,2.7-15.8,8.3-20.8"/>
			<path class="st14" d="M440.1,343.6c2.9,2.9,4.9,6.6,5.7,10.6"/>
			<path class="st14" d="M458.4,363.4c5.8,2.6,11.2,8,14,13.7"/>
			<path class="st14" d="M449.8,330.4c3-0.9,5.7,0.1,8.6,1.2s5.4,3.2,7.1,5.8"/>
			<g>
				<path class="st13" d="M424.5,333c0,0,4.2,0.5,4.5-2.1c0.2-2.6-14-12.7-25.7-4.3c0,0,3.6,11.6,12.2,13.7S424.5,333,424.5,333z"/>
			</g>
			<path class="st14" d="M424.4,333.2c-4.5-6-15.4-7.9-19.1-6.6"/>
			<path class="st14" d="M410.5,347.1c-3.6,1.4-7.5,3.7-9.5,7"/>
			<path class="st14" d="M396.9,374.8c2.8-5.5,7.6-9.9,13.3-12.3"/>
			<path class="st14" d="M434.2,324.8c2.3-4.8,6.6-8.7,11.7-10.3"/>
		</g>
		<g>
			<polygon class="st12" points="448.8,433.9 418.1,433.9 414.7,400.2 452.2,400.2 			"/>
			<rect x="413.1" y="396.5" class="st12" width="40.7" height="7.4"/>
			<polygon class="st15" points="415.2,403.8 415.6,408.8 451.4,408.8 451.9,403.8 			"/>
		</g>
	</g>
</g>
<g id="Letter">
	<g>
		<polygon class="st12" points="137.2,207.6 251.2,128.2 365.2,207.6 253.6,295.9 		"/>
		<rect x="148.9" y="82.3" class="st16" width="204.7" height="199.4"/>
		<rect x="148.9" y="82.3" class="st17" width="204.7" height="199.4"/>
		<polygon class="st18" points="148.9,210 251.2,261.5 353.5,210 350.8,247.4 243.7,289.4 147,220.7 		"/>
		<g>
			<g>
				<g>
					<rect x="170.2" y="213.3" class="st12" width="73.5" height="4.2"/>
				</g>
				<rect x="170.2" y="213.3" class="st19" width="73.5" height="4.2"/>
			</g>
			<g>
				<g>
					<rect x="248.7" y="213.3" class="st12" width="94" height="4.2"/>
				</g>
				<rect x="248.7" y="213.3" class="st19" width="94" height="4.2"/>
			</g>
			<g>
				<g>
					<rect x="180.5" y="233.5" class="st12" width="148.7" height="4.2"/>
				</g>
				<rect x="180.5" y="233.5" class="st19" width="148.7" height="4.2"/>
			</g>
			<g>
				<g>
					<rect x="195.8" y="243.6" class="st12" width="117.9" height="4.2"/>
				</g>
				<rect x="195.8" y="243.6" class="st19" width="117.9" height="4.2"/>
			</g>
			<g>
				<g>
					<rect x="196.8" y="253.9" class="st12" width="117.9" height="4.2"/>
				</g>
				<rect x="196.8" y="253.9" class="st19" width="117.9" height="4.2"/>
			</g>
			<g>
				<g>
					<rect x="170.2" y="223.4" class="st12" width="107.9" height="4.2"/>
				</g>
				<rect x="170.2" y="223.4" class="st19" width="107.9" height="4.2"/>
			</g>
			<g>
				<g>
					<rect x="282.2" y="223.4" class="st12" width="47" height="4.2"/>
				</g>
				<rect x="282.2" y="223.4" class="st19" width="47" height="4.2"/>
			</g>
			<ellipse class="st20" cx="186" cy="116" rx="11.9" ry="11.9"/>
			<rect x="209.4" y="109.2" class="st20" width="39.6" height="4.2"/>
			<g>
				<rect x="209.2" y="117.4" class="st12" width="109.6" height="4.2"/>
			</g>
			<g>
				<rect x="169.9" y="143.8" class="st12" width="56" height="4.2"/>
			</g>
			<g>
				<g>
					<rect x="169.4" y="155.2" class="st12" width="83.9" height="4.2"/>
				</g>
				<rect x="169.4" y="155.2" class="st19" width="83.9" height="4.2"/>
			</g>
			<g>
				<g>
					<rect x="251.6" y="164.9" class="st12" width="83.9" height="4.2"/>
				</g>
				<rect x="251.6" y="164.9" class="st19" width="83.9" height="4.2"/>
			</g>
			<g>
				<g>
					<rect x="170.2" y="164.9" class="st12" width="73.5" height="4.2"/>
				</g>
				<rect x="170.2" y="164.9" class="st19" width="73.5" height="4.2"/>
			</g>
			<g>
				<g>
					<rect x="260.9" y="155.2" class="st12" width="20.2" height="4.2"/>
				</g>
				<rect x="260.9" y="155.2" class="st19" width="20.2" height="4.2"/>
			</g>
			<g>
				<g>
					<rect x="286.6" y="155.2" class="st12" width="48.9" height="4.2"/>
				</g>
				<rect x="286.6" y="155.2" class="st19" width="48.9" height="4.2"/>
			</g>
			<rect x="209.2" y="117.4" class="st19" width="109.6" height="4.2"/>
			<rect x="169.9" y="143.8" class="st19" width="56" height="4.2"/>
		</g>
		<polygon class="st21" points="137.2,349 137.2,207.6 250.7,268.1 365.2,207.6 365.2,349 		"/>
		<g>
			<g>
				<g>
					<path class="st21" d="M131.7,243.3c0,21.6,0,43.1,0,64.7c0,6.1,0,12.3,0,18.4c0,1,1.5,1,1.5,0c0-21.6,0-43.1,0-64.7
						c0-6.1,0-12.3,0-18.4C133.2,242.3,131.7,242.3,131.7,243.3L131.7,243.3z"/>
				</g>
			</g>
			<g>
				<g>
					<path class="st21" d="M133.3,240c0-2,0-4,0-6c0-1-1.5-1-1.5,0c0,2,0,4,0,6C131.8,241,133.3,241,133.3,240L133.3,240z"/>
				</g>
			</g>
		</g>
	</g>
</g>
<g id="Confetti">
	<path class="st22" d="M338.6,349.3c0,0-1.4-12.8-0.2-37.4c1.1-24.6,12.9-63.8,12.9-63.8l-3.6-2.1l7-32.1l11.6-6.1l-8.1,141.5H338.6
		z"/>
	<g>
		<path class="st10" d="M43.8,159.8l3.2-1.2c0,0-0.8,3.4,3.7,4.4l-2.9,2.1C47.8,165.1,43.9,163.6,43.8,159.8z"/>
		<path class="st10" d="M222.1,60.5l1,3.3c0,0-3.3-1.1-4.6,3.4l-1.9-3C216.6,64.2,218.3,60.4,222.1,60.5z"/>
		<path class="st10" d="M124.8,102.4l0.3-2.3c0,0,1.8,1.6,3.9-0.9l0.4,2.4C129.3,101.6,127.1,103.6,124.8,102.4z"/>
		<path class="st10" d="M116.4,34.4l0.3-2.3c0,0,1.8,1.6,3.9-0.9l0.4,2.4C120.9,33.6,118.7,35.6,116.4,34.4z"/>
		<path class="st10" d="M244.3,29.4l0.3-2.3c0,0,1.8,1.6,3.9-0.9l0.4,2.4C248.8,28.6,246.7,30.6,244.3,29.4z"/>
		<g>
			<path class="st10" d="M88.1,64l0.4-3.4c0,0,2.6,2.3,5.6-1.3l0.5,3.5C94.6,62.8,91.5,65.6,88.1,64z"/>
			<path class="st19" d="M88.1,64l0.4-3.4c0,0,2.6,2.3,5.6-1.3l0.5,3.5C94.6,62.8,91.5,65.6,88.1,64z"/>
		</g>
		<g>
			<path class="st10" d="M138,65.9l3-1.6c0,0-0.4,3.5,4.2,3.8l-2.6,2.4C142.7,70.6,138.6,69.7,138,65.9z"/>
			<path class="st19" d="M138,65.9l3-1.6c0,0-0.4,3.5,4.2,3.8l-2.6,2.4C142.7,70.6,138.6,69.7,138,65.9z"/>
		</g>
		<g>
			<path class="st10" d="M264.3,55.8l3-1.6c0,0-0.4,3.5,4.2,3.8l-2.6,2.4C268.9,60.5,264.9,59.5,264.3,55.8z"/>
			<path class="st19" d="M264.3,55.8l3-1.6c0,0-0.4,3.5,4.2,3.8l-2.6,2.4C268.9,60.5,264.9,59.5,264.3,55.8z"/>
		</g>
		<path class="st10" d="M383.6,94.3l1,3.3c0,0-3.3-1.1-4.6,3.4l-1.9-3C378.2,98,379.9,94.2,383.6,94.3z"/>
		<path class="st10" d="M410.1,130.2l-0.3-3.4c0,0,3,1.7,5.2-2.4l1.2,3.3C416.2,127.7,413.7,131.1,410.1,130.2z"/>
		<path class="st10" d="M460.3,245.3l-0.3-3.4c0,0,3,1.7,5.2-2.4l1.2,3.3C466.4,242.8,464,246.2,460.3,245.3z"/>
		<path class="st10" d="M38.6,268.1l-0.3-3.4c0,0,3,1.7,5.2-2.4l1.2,3.3C44.7,265.6,42.3,269,38.6,268.1z"/>
		<path class="st10" d="M408.8,57.8l0.3-2.3c0,0,1.8,1.6,3.9-0.9l0.4,2.4C413.3,57,411.2,59,408.8,57.8z"/>
		<path class="st10" d="M317.8,63.7l0.3-2.3c0,0,1.8,1.6,3.9-0.9l0.4,2.4C322.3,62.9,320.1,64.9,317.8,63.7z"/>
		<g>
			<path class="st10" d="M431,81l3-1.6c0,0-0.4,3.5,4.2,3.8l-2.6,2.4C435.7,85.7,431.6,84.7,431,81z"/>
			<path class="st19" d="M431,81l3-1.6c0,0-0.4,3.5,4.2,3.8l-2.6,2.4C435.7,85.7,431.6,84.7,431,81z"/>
		</g>
		<g>
			<path class="st10" d="M455.2,126.5l3-1.6c0,0-0.4,3.5,4.2,3.9l-2.6,2.4C459.9,131.2,455.8,130.3,455.2,126.5z"/>
			<path class="st19" d="M455.2,126.5l3-1.6c0,0-0.4,3.5,4.2,3.9l-2.6,2.4C459.9,131.2,455.8,130.3,455.2,126.5z"/>
		</g>
		<g>
			<path class="st10" d="M434.7,280.2l3-1.6c0,0-0.4,3.5,4.2,3.9l-2.6,2.4C439.3,284.9,435.3,283.9,434.7,280.2z"/>
			<path class="st19" d="M434.7,280.2l3-1.6c0,0-0.4,3.5,4.2,3.9l-2.6,2.4C439.3,284.9,435.3,283.9,434.7,280.2z"/>
		</g>
		<g>
			<path class="st10" d="M47.7,308.9l3-1.6c0,0-0.4,3.5,4.2,3.9l-2.6,2.4C52.3,313.5,48.3,312.6,47.7,308.9z"/>
			<path class="st19" d="M47.7,308.9l3-1.6c0,0-0.4,3.5,4.2,3.9l-2.6,2.4C52.3,313.5,48.3,312.6,47.7,308.9z"/>
		</g>
		<g>
			<path class="st10" d="M366.5,61.3l1-3.3c0,0,2.2,2.7,5.7-0.3l-0.1,3.6C373.1,61.3,369.6,63.5,366.5,61.3z"/>
			<path class="st19" d="M366.5,61.3l1-3.3c0,0,2.2,2.7,5.7-0.3l-0.1,3.6C373.1,61.3,369.6,63.5,366.5,61.3z"/>
		</g>
		<g>
			<path class="st10" d="M326.2,27l1-3.3c0,0,2.2,2.7,5.7-0.3l-0.1,3.6C332.8,27,329.2,29.2,326.2,27z"/>
			<path class="st19" d="M326.2,27l1-3.3c0,0,2.2,2.7,5.7-0.3l-0.1,3.6C332.8,27,329.2,29.2,326.2,27z"/>
		</g>
	</g>
</g>
<g id="Speech_Bubble">
	<g>
		<g>
			<g>
				<path class="st23" d="M46.5,101.9c-1-10.8,7-20.5,17.8-21.5s20.5,7,21.5,17.8c0.8,8.4-3.8,16-10.9,19.5l-1.6,5.7l-5-3.8
					c-0.1,0-0.2,0-0.3,0C57.1,120.7,47.5,112.8,46.5,101.9z"/>
			</g>
			<path class="st24" d="M60.2,78.5c-6.3,1.3-11.7,6-14,12"/>
			<path class="st24" d="M45.3,93.3c-0.4,0.9-0.6,1.9-0.7,2.8"/>
		</g>
		<g>
			<path class="st9" d="M66.2,110.6c-0.7,0-1.4-0.2-1.9-0.7s-0.7-1.1-0.7-1.7s0.2-1.3,0.7-1.7s1.1-0.7,1.9-0.7s1.4,0.2,1.9,0.7
				s0.7,1,0.7,1.7s-0.2,1.3-0.7,1.7C67.5,110.4,66.9,110.6,66.2,110.6z M67.8,103.8h-3.4l-0.8-12.4h5L67.8,103.8z"/>
		</g>
	</g>
</g>
<g id="Character_2">
	<g>
		<g>
			<g>
				<path d="M452.7,183.5c0-2.4-1.7-4.8-4.1-5.2c2.1-0.8,4.1-2.2,4.8-4.4s-0.2-4.9-2.3-5.5c-1.8-0.6-3.6,0.4-5.2,1.2
					c-2.5,1.3-5.2,2.5-7.9,1.8c-2.9-0.7-4.8-3.3-6.1-5.9c-1.3-2.6-2.3-5.5-4.4-7.6s-5.6-3.2-7.9-1.4l-1.5,8.7c0.6,7.4,2,15.1,7,20.6
					c5.2,5.6,10.4,7.3,17.7,6.2c2.4-0.4,4.7-1.1,6.7-2.5C451.3,188.2,452.7,185.9,452.7,183.5z"/>
			</g>
			<path class="st13" d="M419.6,156.6c0.6,0.5,8.8,5.2,5.3,12.7s-5.4,5.6-5.4,5.6L419.6,156.6z"/>
			<path class="st25" d="M393.9,190.2c1.6-0.7,2.1-1.5,2.6-3.2c0.3-1.3,0.5-2.8,0.5-4.2l2.4-1.2l11.9-4.8c-2.6,5.5-7.7,14-4.6,18.9
				c0,0,4.3,4.4,6.3,6c-1.9,0.5-22,10.5-30.1,6.2c-7.3-3.9,1.6-17.1,3.7-18.8C389.1,189.4,391.7,189.7,393.9,190.2z"/>
			<path class="st26" d="M396.2,187.7c2.6,0.4,6.7,0.1,8.4-2.4c0.7-1,1.1-2.1,1.4-2.9l-8.9,1.7C396.7,185.2,397,186.2,396.2,187.7z"
				/>
			<path class="st25" d="M418.3,169.2c-4.5,8.1-6.2,11.7-12.6,14.2c-9.5,3.8-18.7-2.9-16.7-12.1c1.8-8.3,8.8-20.2,18.7-20.1
				C417.5,151.3,422.8,161.1,418.3,169.2z"/>
			<path class="st12" d="M405.1,167.3c-0.3,0.8-1.1,1.3-1.6,1.1c-0.6-0.2-0.8-1-0.5-1.8s1.1-1.3,1.6-1.1
				C405.2,165.7,405.4,166.5,405.1,167.3z"/>
			<path class="st12" d="M408.6,165.4c-0.1,0-0.2-0.1-0.3-0.2c-0.8-1.8-2.4-2-2.4-2c-0.2,0-0.4-0.3-0.4-0.5c0.1-0.2,0.3-0.4,0.5-0.4
				c0.1,0,2.2,0.3,3.1,2.5c0.1,0.2,0,0.5-0.3,0.6C408.8,165.4,408.7,165.4,408.6,165.4z"/>
			<path class="st12" d="M397,158.1c-0.1-0.1-0.1-0.2-0.2-0.3c0-0.2,0.2-0.4,0.4-0.5c2.6-0.2,3.9,1.4,4,1.5c0.2,0.2,0.1,0.5-0.1,0.6
				s-0.5,0.1-0.7-0.1c-0.1-0.1-1.1-1.3-3.2-1.1C397.2,158.2,397.1,158.2,397,158.1z"/>
			<path class="st27" d="M400.2,164c0,0-2.7,2.6-5.1,3.9c-0.4,0.2-0.5,0.8-0.1,1.1c0.9,0.8,2.3,1,2.3,1L400.2,164z"/>
			<path class="st12" d="M405,165.7l-1.8-1.2C403.1,164.6,404,166.5,405,165.7z"/>
			<path class="st12" d="M397.4,163.9c-0.3,0.8-1.1,1.3-1.6,1.1c-0.6-0.2-0.8-1-0.5-1.8s1.1-1.3,1.6-1.1
				C397.5,162.3,397.7,163.1,397.4,163.9z"/>
			<path class="st12" d="M397.1,162.1l-1.8-1.2C395.3,161,396.1,163,397.1,162.1z"/>
			<path d="M409.6,181.4c5.2-1.1,11.8-6.4,13.3-12.7c1.6-6.5-1.6-13.3-9-16.9c-14.6-7.1-21.7,11.1-21.7,11.1
				c9.1-15.8,21.6-4.1,21.6-4.1c-5.5,5.6-1.3,12.2-1.3,12.2C412.8,176.4,409.6,181.4,409.6,181.4z"/>
			<path class="st25" d="M417.8,177.3c-1.8,1.3-3.9,1.7-5.5,1.4c-2.5-0.4-2.1-4.5-0.3-6.5c1.6-1.7,4.4-2.1,6.4-0.7
				C420.3,172.9,419.8,175.8,417.8,177.3z"/>
			<path class="st28" d="M415.8,173c0.8,0,1.4,0.8,1.4,1.5c0,0.8-1.1,2.4-3.5,2"/>
			<path d="M423.1,166.1c0.2-3.6-1.5-12.2-13-16.4c-11.5-4.1-16.5,2.6-16.5,2.6c2.5-1.4,5.3-2.1,8.1-2c-3.3,0.5-6.2,2.4-7.8,5.3
				c0.8-0.9,4-0.4,4-0.4c1.3-1.2,2.8-2.1,4.4-2.9c-1.7,0.7-2.7,3.8-2.7,3.8l3.3,1.6c0.8-1.9,2.2-3.4,4-4.4c-1.2,1.6-1.9,3.6-1.9,5.6
				c0.5-2.2,1.8-4.1,3.8-5.3c-1.3,1.7-2.2,3.7-2.8,5.8c1.5,1.4,2.9,3,4,4.8c0.4-2.4,1.6-4.5,3.5-6.1c-3.4,5.3-0.7,12-0.7,12
				S422.9,169.7,423.1,166.1z"/>
			<g>
				<path class="st12" d="M398.8,173.7c0.4,1,0.7,2.9,0.7,2.9c0.2,0,0.3,0,0.5,0c2.4,0,3.5-0.8,3.9-1.7c0.3-0.5,0.4-1,0.4-1.4
					c0-0.5-0.1-0.8-0.1-0.8c-1.2,0.8-3.4,0.9-4.6,1C399.1,173.7,398.8,173.7,398.8,173.7z"/>
				<path class="st9" d="M399.6,173.7l0.2,0.8c2.2,0,3.8-0.3,4.5-1c0-0.5-0.1-0.8-0.1-0.8C403,173.5,400.8,173.6,399.6,173.7z"/>
				<path class="st29" d="M400,176.6c2.4,0,3.5-0.8,3.9-1.7c-0.8,0-1.8,0.2-2.6,0.5C400.7,175.7,400.3,176.2,400,176.6z"/>
			</g>
		</g>
		<g>
			<path class="st25" d="M368.9,188.6c0,0-7.6-24.2-7-28.7s11.9-26.8,11.9-26.8l6.8,3.5l-8.4,24l10.6,23.4L368.9,188.6z"/>
			<path class="st12" d="M370.5,200.7c-0.5-8.5-5.1-22.1-5.1-22.1l13.2-6.5c0,0,4.1,11.7,9.8,16.5
				C388.4,188.7,370.7,205.9,370.5,200.7z"/>
			<path class="st26" d="M376.7,191.6c-2.5,1-4.9,2.5-6.9,4.3c0.3,1.6,0.5,3.2,0.6,4.8c0.1,2.1,3,0.6,6.5-2
				C377.2,196.4,377.1,194,376.7,191.6z"/>
			<path class="st25" d="M369.4,142.4l4.5-9.3c0,0-0.5-2.2-0.5-3.8c0-1.6,0.1-3.6,2-5.6s2.1,0,2.1,0c2.1-1.7,3.4,0.2,3.4,0.2
				c1.8-1.5,3.4,0.3,3.4,0.3s2.1,1.8,2.5,3.1c0.4,1.3-1.6,5.4-1.6,5.4l-4.2,3.1l-3.5,9.7C377.4,145.5,369.4,142.4,369.4,142.4z"/>
			<g class="st8">
				<g>
					<path d="M378.8,131.3c1.1-1.1,2.6-1.7,4.2-1.5c0.1,0,0.2-0.1,0.2-0.2c0.2-0.8,0.5-1.6,0.7-2.5c0-0.1,0-0.2-0.1-0.3
						c-0.8-0.5-1.9-1.2-1.5-2.3l0,0c0.1,0,0.2,0,0.3,0.1c0.4,0.2,0.8,0.5,1.2,0.8c0.9,0.6,1.7,1.4,2.6,2.1c0.2,0.2,0.5-0.1,0.3-0.3
						c-0.8-0.7-1.6-1.3-2.4-1.9c-0.4-0.3-0.9-0.7-1.4-0.9c-0.5-0.2-0.9-0.2-1.1,0.3c-0.4,1.2,0.8,2.1,1.7,2.7c0-0.1-0.1-0.2-0.1-0.3
						c-0.2,0.8-0.5,1.6-0.7,2.5c0.1-0.1,0.1-0.1,0.2-0.2c-1.7-0.1-3.3,0.5-4.5,1.7C378.3,131.2,378.6,131.5,378.8,131.3L378.8,131.3
						z"/>
				</g>
			</g>
			<g class="st8">
				<g>
					<path d="M374.1,125.8c-0.2,0.4-0.2,0.9,0,1.3s0.7,0.7,1.1,0.7c0.5,0,0.9-0.2,1.2-0.6c0.3-0.4,0.4-0.9,0.6-1.4
						c0.3-0.6,0.6-1.2,0.9-1.8c0.2-0.2-0.2-0.5-0.4-0.2c-0.3,0.5-0.6,1.1-0.9,1.7c-0.2,0.5-0.3,1-0.6,1.5c-0.3,0.4-0.8,0.5-1.2,0.3
						c-0.4-0.2-0.5-0.8-0.3-1.2C374.6,125.8,374.2,125.6,374.1,125.8L374.1,125.8z"/>
				</g>
			</g>
			<g class="st8">
				<g>
					<path d="M376.6,126.8c0.1,0.6,0.5,1.2,1.1,1.5c0.5,0.3,1.2,0.3,1.7-0.1c0.6-0.4,0.7-1.2,0.9-1.8c0.3-0.7,0.7-1.4,1.2-2.1
						c0.2-0.2-0.1-0.5-0.3-0.3c-0.4,0.5-0.7,1.1-1,1.7c-0.1,0.3-0.3,0.6-0.4,0.9s-0.2,0.6-0.3,0.9c-0.3,0.5-0.9,0.6-1.4,0.4
						s-0.9-0.8-1-1.3C377,126.4,376.5,126.5,376.6,126.8L376.6,126.8z"/>
				</g>
			</g>
			<g class="st8">
				<g>
					<path d="M380.1,127.4c0.2,0.6,0.8,1.1,1.5,1.2s1.4-0.3,1.7-0.9c0.1-0.3-0.3-0.5-0.4-0.2c-0.2,0.5-0.7,0.7-1.2,0.7
						s-0.9-0.4-1.1-0.8c0-0.1-0.2-0.2-0.3-0.2C380.1,127.2,380.1,127.3,380.1,127.4L380.1,127.4z"/>
				</g>
			</g>
		</g>
		<path class="st25" d="M409.1,195.7c-5.6,4.5-21.3,5.3-21.3,5.3c-1.1-6.4,0.5-10,2.6-11.9l1.1,0.2c5.4,1.5,10.6,3.3,15.7,5.6
			C407.7,195.2,408.4,195.5,409.1,195.7z"/>
		<g>
			<polygon class="st12" points="358.1,239.2 404.4,252.1 407.4,245.4 383.6,232.3 361.2,232.8 			"/>
			<polygon class="st26" points="358.1,239.2 404.4,252.1 407.4,245.4 383.6,232.3 361.2,232.8 			"/>
			<path class="st25" d="M391.4,189.3c5.4,1.5,10.6,3.3,15.7,5.6c4.8,2,9.4,4.3,13.9,7c-16.8,26.5-19.8,35.2-24.1,49.5
				c-6.7-2.3-21.3-2.6-35.1-7.4c4.2-38.7,18.4-55.2,18.4-55.2C383.8,188.1,387.7,188.3,391.4,189.3z"/>
			<path class="st12" d="M403.2,247.9c-3-6.3-16.8-9.4-27.4-11.3c-10.6-1.9-17.6,2.7-17.6,2.7l1.7-6.2c1.3-4.5,3.3-11.5,7.4-25.1
				c1.7-5.4,4.5-11.8,7.6-15.3c1.1-2.1,2.5-4,4.1-5.7c2.8-2.8,5.2-2.8,10,1.9c0,0,0,4.5,4.5,6.9c6.7,3.6,15.3-0.8,15.3-0.8
				s9.3,4.4,11.8,7c1.1,1.1-1,5.1-4.3,11.3c-0.1,0.1-0.2,0.3-0.2,0.4c-1.8,3.3-6.6,11.1-8.9,15.6c-4.1,7.9,9.1,16.8-2.7,22.9
				L403.2,247.9z"/>
		</g>
		<path class="st26" d="M410.9,213.1c0.3-1,0.5-1.5,0.5-1.5c1.9,0,3.7,0.6,5.2,1.7l0,0l0,0c-0.1,0.1-0.2,0.3-0.2,0.4
			c-1.8,3.3-4.4,6.5-6.8,11C409,220.5,409.7,217.1,410.9,213.1z"/>
		<g>
			<path class="st25" d="M436.4,217.3c-0.7,1.7-1,3.9-1.4,6c-5.2-5.2-9.5-12.1-13-18.4l-12.3,6l0,0c5.3,10.5,12.4,20.2,22.7,26.4
				c3.7,2.2,8.5,1,10.7-2.7c0.1-0.1,0.1-0.2,0.2-0.4c2.5-4.2,2.3-5.7,3.1-9.9L436.4,217.3z"/>
			<path class="st12" d="M409.5,212.1c-0.8,4.9,6.9,13.5,6.9,13.5l12.6-12.1c0,0-5.4-10.4-8.9-12
				C416.2,199.6,410.3,207.2,409.5,212.1z"/>
			<polygon class="st10" points="456.2,188.8 456.4,209.8 426.9,218.3 427.8,195.4 453.5,188 			"/>
			<polygon class="st26" points="456.2,188.8 456.4,209.8 426.9,218.3 427.8,195.4 453.5,188 			"/>
			<polygon class="st10" points="437.2,196.8 434.5,218.6 428.8,216.4 428.9,196.4 			"/>
			<polygon class="st19" points="437.2,196.8 434.5,218.6 428.8,216.4 428.9,196.4 			"/>
			<polygon class="st21" points="453.5,188 456.2,188.8 458.3,211.1 431.5,219.2 431.6,197.7 427.8,195.4 			"/>
			<g>
				<path class="st25" d="M438.8,212.2l0.5-10.3c0,0-1.3-1.8-1.9-3.3s-1.3-3.4-0.4-5.9s1.9-0.8,1.9-0.8c1.2-2.4,3.2-1.2,3.2-1.2
					c1-2.1,3.2-1,3.2-1s2.7,0.9,3.5,1.8c0.9,1,0.6,5.6,0.6,5.6l-2.6,4.5l0.1,10.3C446.9,211.9,438.8,212.2,438.8,212.2z"/>
			</g>
			<path class="st25" d="M435,223.3l4.3-21.4l7.7,0.2c0,0,1,24.2-2.5,30.1c-3.5,5.9-6.3,1.7-6.3,1.7L435,223.3z"/>
		</g>
		<g>
			<polygon class="st25" points="383.3,424.5 374.6,426.4 365.6,404.6 378.9,401.7 			"/>
			<g>
				<path class="st12" d="M372.6,423.4l3-1c0.7-0.2,1.4-0.1,2,0.3c2.5,1.8,3.5,0.5,4.7-2.4c1.2-0.5,1.9,0.7,2.2,1.1l4.9,7.5
					c0.4,0.6,0.3,1.5-0.4,1.9c-0.1,0.1-0.2,0.1-0.4,0.2c-3.7,1.2-5.4,1.8-10,3.2l-14,4.5c-3.8,1.2-5.9-2.4-4.4-3.2
					c6.6-3.9,10.9-7.6,12.4-10.3C373.1,424.8,372.5,424.6,372.6,423.4z"/>
				<path class="st10" d="M369,427.6c0.9-0.3,1.9-0.8,2.7-1.3c0.1-0.1,0.1-0.2,0-0.2l-0.1-0.1c-0.5-0.1-4.9-0.6-5.6,0.4
					c-0.1,0.2-0.2,0.4-0.1,0.6c0.1,0.4,0.4,0.7,0.8,0.8C367.5,428,368.3,427.9,369,427.6z M371.1,426.3c-1.1,0.6-3,1.5-4.1,1.2
					c-0.3-0.1-0.5-0.3-0.6-0.6c0-0.1,0-0.2,0-0.3C366.8,426.1,369.3,426.1,371.1,426.3z"/>
				<path class="st10" d="M371.7,426.4h0.1c0-0.1,0-0.1,0-0.2c-0.1-0.2-2.1-3.6-4.1-2.7c-0.5,0.2-0.6,0.5-0.5,0.7
					C367.3,425.2,370.3,426.3,371.7,426.4L371.7,426.4z M368,423.7c1.3-0.4,2.8,1.5,3.3,2.3c-1.4-0.3-3.7-1.2-3.8-1.9
					c0,0-0.1-0.2,0.3-0.4H368z"/>
				<path class="st24" d="M371.3,426.4c1.1-0.2,2.3,0.1,3.1,0.8"/>
				<path class="st24" d="M369.9,428.4c1.1-0.2,2.3,0.1,3.1,0.8"/>
				<path class="st24" d="M367.9,430.4c1.1-0.2,2.3,0.1,3.1,0.8"/>
			</g>
			<polygon class="st15" points="371.7,419.4 372.5,421.3 382.2,418.4 381.7,416.2 			"/>
		</g>
		<g>
			<polygon class="st25" points="452.7,369.4 447.1,376.4 426.3,365.2 434.8,354.5 			"/>
			<g>
				<path class="st12" d="M443.8,375.1l1.7-2.7c0.4-0.6,1.1-1,1.8-1c3.1-0.2,3.1-1.9,2.2-4.8c0.6-1.1,2-0.6,2.4-0.5l8.6,2.7
					c0.7,0.2,1.1,1,0.9,1.7c0,0.1-0.1,0.2-0.2,0.4c-2.1,3.2-3.1,4.8-5.7,8.8l-8,12.4c-2.2,3.4-6,1.9-5.4,0.3
					c2.7-7.1,3.7-12.7,3.1-15.8C445,375.9,444.6,376.1,443.8,375.1z"/>
				<path class="st10" d="M443.7,380.7c0.5-0.9,1-1.8,1.3-2.7c0-0.1,0-0.2-0.1-0.2s-0.1,0-0.1,0c-0.4,0.3-4.2,2.6-4.1,3.8
					c0,0.2,0.1,0.4,0.3,0.5c0.3,0.2,0.8,0.3,1.2,0.1C442.8,381.9,443.4,381.4,443.7,380.7z M444.5,378.4c-0.5,1.1-1.4,3.1-2.5,3.5
					c-0.3,0.1-0.6,0.1-0.9-0.1c-0.1,0-0.1-0.1-0.1-0.2C441,380.9,443,379.4,444.5,378.4z"/>
				<path class="st10" d="M445,378l0.1-0.1c0-0.1-0.1-0.1-0.1-0.1c-0.1-0.1-3.9-1.4-4.9,0.5c-0.2,0.5-0.1,0.8,0.1,0.9
					C440.9,379.9,443.9,378.9,445,378L445,378z M440.4,378.3c0.8-1.2,3.1-0.6,4-0.3c-1.3,0.7-3.6,1.4-4.1,0.9c0,0-0.2-0.1,0-0.5
					L440.4,378.3z"/>
				<path class="st24" d="M444.7,378.3c0.7-0.8,1.8-1.3,2.9-1.3"/>
				<path class="st24" d="M444.9,380.8c0.7-0.8,1.8-1.3,2.9-1.3"/>
				<path class="st24" d="M444.6,383.5c0.7-0.8,1.8-1.3,2.9-1.3"/>
			</g>
			<polygon class="st15" points="437.9,371.7 441,373.2 446.7,364.4 444.7,362.7 			"/>
		</g>
		<g>
			<path class="st10" d="M388.6,245.1c0,0-11.2,66.7-14.6,95.8l11,74.7l-17.1,4.9c0,0-21.1-58.3-19.6-85.6c-2-25,9.2-90.2,13.6-91.8
				L388.6,245.1z"/>
			<path class="st26" d="M388.6,245.1c0,0-11.2,66.7-14.6,95.8l11,74.7l-17.1,4.9c0,0-21.1-58.3-19.6-85.6c-2-25,9.2-90.2,13.6-91.8
				L388.6,245.1z"/>
			<path class="st26" d="M383.5,267.9c-3.4,16.3-5.8,49.1-8.8,67.3c-2.2-12.5-5.9-50,4.4-67.3C383.9,259.8,382.8,258.4,383.5,267.9z
				"/>
			<path class="st10" d="M398.5,245.9c0,0,9.8,11.9,10.6,32.5c0.7,17.2-6.5,39.9-4.9,53.1c16.5,4,40.5,31.1,40.5,31.1l-6.1,10
				c0,0-51.9-20.8-57.2-33.6c-4.8-26.2-9.5-95.3-9.5-95.3L398.5,245.9z"/>
			<path class="st26" d="M398.5,245.9c0,0,9.8,11.9,10.6,32.5c0.7,17.2-6.5,39.9-4.9,53.1c16.5,4,40.5,31.1,40.5,31.1l-6.1,10
				c0,0-51.9-20.8-57.2-33.6c-4.8-26.2-9.5-95.3-9.5-95.3L398.5,245.9z"/>
		</g>
	</g>
</g>
<g id="Character_1">
	<path class="st26" d="M136.3,270.9c0,0.1,37.8,51.3,42.4,58.8s5.8,19.3,5.8,19.3h-16.6l-31.4-50.1L136.3,270.9z"/>
	<g>
		<g>
			<path class="st30" d="M110.5,172.7l25.1-25.4l2.7-29.9l7.7,2.9c0,0,2.8,29.1,0.7,32.4c-2,3.3-24.3,28.4-24.3,28.4L110.5,172.7z"
				/>
			<path class="st30" d="M146.7,127.9l-0.7-10.3c0,0,1.3-1.8,1.8-3.3c0.6-1.5,1.2-3.4,0.3-5.9s-2-0.8-2-0.8
				c-1.3-2.4-3.2-1.1-3.2-1.1c-1.1-2.1-3.2-0.9-3.2-0.9s-2.6,0.9-3.5,1.9c-0.8,1-0.5,5.6-0.5,5.6l2.7,4.5l-0.4,10.3
				C138.2,127.8,146.7,127.9,146.7,127.9z"/>
			<g class="st8">
				<g>
					<path d="M142.6,113.9c-0.7-1.5-2-2.7-3.6-3.2c0.1,0.1,0.1,0.1,0.2,0.2c0.1-0.9,0.2-1.7,0.2-2.6c-0.1,0.1-0.1,0.1-0.2,0.2
						c1-0.1,2.1-0.4,2.5-1.4c0.1-0.3,0.2-0.7,0-0.9c-0.2-0.2-0.4-0.2-0.6-0.2c-0.5,0-1,0.1-1.4,0.2c-1.1,0.3-2.2,0.6-3.3,1
						c-0.3,0.1-0.2,0.5,0.1,0.4c1.1-0.3,2.1-0.7,3.2-1c0.5-0.1,1-0.3,1.5-0.3c0.1,0,0.2,0,0.2,0s0,0,0,0.1c0-0.1,0,0.1,0,0.2
						c0,0.3-0.2,0.6-0.4,0.8c-0.5,0.4-1.2,0.5-1.8,0.6c-0.1,0-0.2,0.1-0.2,0.2c-0.1,0.9-0.2,1.7-0.2,2.6c0,0.1,0.1,0.2,0.2,0.2
						c1.5,0.5,2.7,1.6,3.3,3C142.3,114.4,142.7,114.2,142.6,113.9L142.6,113.9z"/>
				</g>
			</g>
			<g class="st8">
				<g>
					<path d="M148.1,110.8c0.1,0.5-0.2,0.9-0.7,1s-0.9-0.2-1.1-0.7c-0.2-0.5,0-1.1-0.1-1.6c0-0.6-0.1-1.3-0.2-1.9
						c-0.1-0.3-0.5-0.2-0.4,0.1c0.1,0.8,0.2,1.6,0.2,2.4c0,0.6,0,1.3,0.4,1.8c0.4,0.4,1,0.5,1.5,0.3s0.8-0.8,0.8-1.4
						C148.5,110.5,148.1,110.5,148.1,110.8L148.1,110.8z"/>
				</g>
			</g>
			<g class="st8">
				<g>
					<path d="M145.5,110.5c-0.3,0.4-0.8,0.8-1.4,0.8c-0.5,0-1-0.3-1.1-0.9c0-0.3,0-0.6,0-0.9s0-0.7,0-1c0-0.7-0.1-1.3-0.3-2
						c-0.1-0.3-0.5-0.2-0.4,0.1c0.2,0.8,0.3,1.6,0.3,2.4c0,0.7-0.2,1.5,0.2,2.1c0.3,0.5,1,0.7,1.5,0.6c0.6-0.1,1.2-0.5,1.5-1
						C146,110.5,145.6,110.2,145.5,110.5L145.5,110.5z"/>
				</g>
			</g>
			<g class="st8">
				<g>
					<path d="M142.1,109.7c-0.3,0.4-0.9,0.5-1.4,0.4s-0.8-0.6-0.9-1.1c0-0.1-0.1-0.2-0.2-0.2c-0.1,0-0.2,0.1-0.2,0.2
						c0.1,0.7,0.5,1.3,1.2,1.5c0.6,0.2,1.4,0,1.8-0.5C142.6,109.8,142.2,109.5,142.1,109.7L142.1,109.7z"/>
				</g>
			</g>
		</g>
		<g>
			<polygon class="st10" points="176.7,414.6 166.9,389 183.8,384.1 189.1,415.8 			"/>
			<polygon class="st19" points="176.7,414.6 166.9,389 183.8,384.1 189.1,415.8 			"/>
			<g>
				<g>
					<g>
						<g>
							<g>
								<g>
									<g>
										<g>
											<g>
												<g>
													<g>
														<path class="st12" d="M178.7,428.1l7.1-0.5c0,0,1.4-0.8,2.2-0.8s3.8,0.4,3.8,0.4l18.8-1.2c-0.2-0.7-0.4-1.4-0.7-2
															c-0.3-0.7-0.6-1.3-1-1.8c-1.3-1.7-2.9-2.2-4.7-2.2c-2.6,0-11.3-4.6-11.3-4.6s-3.1-0.8-3.4-3.8c-0.1-1.1-2-2.4-2.9-2.4
															c-1.7-0.1-2.6,1-2.8,2.6l-0.2,1.9l-4-0.3c0,0-4.2-1.6-3.9,0.2c0.2,1.1,1.2,5.7,1.8,9.5c0.2,0.9,0.3,1.7,0.4,2.4l0,0
															C178.5,427,178.7,428.1,178.7,428.1z"/>
													</g>
												</g>
											</g>
										</g>
									</g>
								</g>
								<g class="st31">
									<path class="st9" d="M210.6,426l-18.8,1.2c0,0-3-0.3-3.8-0.4c-0.8,0-2.2,0.8-2.2,0.8l-7.1,0.5c0,0-0.2-1.1-0.5-2.7L210,424
										C210.2,424.6,210.4,425.3,210.6,426z"/>
								</g>
								<g>
									<g>
										<g>
											<g>
												<path class="st9" d="M197.3,417c-0.1-0.1-0.2-0.1-0.3,0c-0.4,0.3-0.8,0.8-1,1.3c-0.1,0.3,0.3,0.5,0.4,0.2
													c0.2-0.5,0.5-0.9,0.9-1.1C197.4,417.3,197.4,417.1,197.3,417L197.3,417z"/>
											</g>
										</g>
									</g>
								</g>
								<g>
									<g>
										<g>
											<g>
												<path class="st9" d="M195.7,416.3c-0.1-0.1-0.2-0.1-0.3,0c-0.4,0.3-0.8,0.8-1,1.3c-0.1,0.3,0.3,0.5,0.4,0.2
													c0.2-0.5,0.5-0.9,0.9-1.1C195.8,416.6,195.8,416.4,195.7,416.3L195.7,416.3z"/>
											</g>
										</g>
									</g>
								</g>
								<g>
									<g>
										<g>
											<g>
												<path class="st9" d="M194.1,415.6c-0.1-0.1-0.2-0.1-0.3,0c-0.4,0.3-0.8,0.8-1,1.3c-0.1,0.3,0.3,0.5,0.4,0.2
													c0.2-0.5,0.5-0.9,0.9-1.1C194.2,415.9,194.2,415.7,194.1,415.6L194.1,415.6z"/>
											</g>
										</g>
									</g>
								</g>
							</g>
						</g>
					</g>
				</g>
			</g>
			<polygon class="st10" points="168.5,393.5 184.5,388.4 185.1,391.7 169.8,396.8 			"/>
			<polygon class="st10" points="170.2,397.9 185.3,392.8 185.5,394 170.7,399.3 			"/>
		</g>
		<g>
			<polygon class="st10" points="82.9,420.3 83,392.9 100.5,394.4 94.1,425.9 			"/>
			<polygon class="st19" points="82.9,420.3 83,392.9 100.5,394.4 94.1,425.9 			"/>
			<g>
				<g>
					<g>
						<g>
							<g>
								<g>
									<g>
										<g>
											<g>
												<g>
													<g>
														<path class="st12" d="M80.6,433.3l9.2,1.2c0,0,1.5-0.6,2.3-0.4s3.7,0.9,3.7,0.9l18.5,1.6c-0.1-0.8-0.2-1.4-0.4-2
															c-0.2-0.7-0.4-1.4-0.7-1.9c-1-1.9-2.2-2.7-3.9-3c-2.6-0.4-10.5-6.3-10.5-6.3s-2.9-1.2-2.8-4.3c0-1.1-1.6-2.7-2.5-2.8
															c-1.7-0.4-2.7,0.6-3.1,2.2l-0.4,1.9l-3.9-0.9c0,0-3.9-2.2-3.8-0.4c0,1.1-1.8,5.3-1.7,9c0,0.9,0.1,1.7,0.1,2.4l0,0
															C80.6,432.2,80.6,433.3,80.6,433.3z"/>
													</g>
												</g>
											</g>
										</g>
									</g>
								</g>
								<g>
									<path class="st19" d="M114.3,436.6L95.9,435c0,0-2.9-0.8-3.7-0.9c-0.8-0.2-2.3,0.4-2.3,0.4l-9.2-1.2c0,0,0-1.1-0.1-2.7
										l33.4,4C114.1,435.2,114.3,435.9,114.3,436.6z"/>
								</g>
								<g>
									<g>
										<g>
											<g>
												<path class="st9" d="M102.8,425.7c-0.1-0.1-0.2-0.1-0.3-0.1c-0.5,0.3-0.9,0.6-1.2,1.1c-0.2,0.3,0.2,0.6,0.4,0.3
													c0.3-0.4,0.6-0.8,1.1-1C102.8,426,102.9,425.9,102.8,425.7L102.8,425.7z"/>
											</g>
										</g>
									</g>
								</g>
								<g>
									<g>
										<g>
											<g>
												<path class="st9" d="M101.3,424.8c-0.1-0.1-0.2-0.1-0.3-0.1c-0.5,0.3-0.9,0.6-1.2,1.1c-0.2,0.3,0.2,0.6,0.4,0.3
													c0.3-0.4,0.6-0.8,1.1-1C101.4,425.1,101.4,424.9,101.3,424.8L101.3,424.8z"/>
											</g>
										</g>
									</g>
								</g>
								<g>
									<g>
										<g>
											<g>
												<path class="st9" d="M99.8,423.9c-0.1-0.1-0.2-0.1-0.3-0.1c-0.5,0.3-0.9,0.6-1.2,1.1c-0.2,0.3,0.2,0.6,0.4,0.3
													c0.3-0.4,0.6-0.8,1.1-1C99.9,424.2,100,424,99.8,423.9C99.9,423.9,99.9,423.9,99.8,423.9z"/>
											</g>
										</g>
									</g>
								</g>
							</g>
						</g>
					</g>
				</g>
			</g>
			<polygon class="st10" points="82.9,397.7 99.7,398.7 99,402 82.9,401.3 			"/>
			<polygon class="st10" points="82.8,402.4 98.8,403 98.5,404.2 82.8,404 			"/>
		</g>
		<g>
			<path class="st12" d="M79.2,414.7l18.9-1.1c0,0,13.1-59,14-73.9c0.8-14.9-0.7-52.1-0.7-52.1l0,0v0.1c0.7,0.8,6.3,9.6,13.6,17.7
				c9.5,10.7,19.7,22.2,22,25.3c7,9.2,23.7,78.9,23.7,78.9l17.9-2.9c0,0-11.1-73-14.2-82.1c-7.4-21.2-46.4-64.1-48.1-66.5
				c-2.1-3-7.4-12.7-7.4-12.7l-46.4,8.5c0,0-0.4,7.1,0.1,13.2c1.5,23,12.1,61.4,13.4,69.7C81.3,355.9,79.2,414.7,79.2,414.7z"/>
			<path class="st26" d="M114.5,283.3l-3,4.3c0.6,1.1,10.6,15,13.2,17.1C125.4,295.2,123.1,287.6,114.5,283.3z"/>
		</g>
		<g>
			<path class="st10" d="M96.1,191.2c2.4,3.5,6.2,7.4,13.9,3.6c5.2-2.6,12.1-10,21.5-18l-16.3-12c-5.7,4.8-7.6,7.2-15.3,13.9
				C89.9,189.1,96.1,191.2,96.1,191.2z"/>
			<path class="st32" d="M96.1,191.2c2.4,3.5,6.2,7.4,13.9,3.6c5.2-2.6,12.1-10,21.5-18l-16.3-12c-5.7,4.8-7.6,7.2-15.3,13.9
				C89.9,189.1,96.1,191.2,96.1,191.2z"/>
		</g>
		<g>
			<path class="st32" d="M116.8,202.1c-1.4-4.8-3.4-10.8-5.1-15.6c-1.8-5.1-6.1-8.8-11.5-8.7c-8.3,0.1-17.1,0.2-31.2,3.9l-3.1,24.5
				l7.6,39.1c0,0,0,9.5-2,18.1c20.4,6.2,45.4,4.8,57.7-3.5C129.2,259.9,119.7,211.7,116.8,202.1z"/>
			<path class="st33" d="M77.5,179.8c0,0,6.4,7,15.8,4.9s7.2-6.9,7.2-6.9s-1,0-2.5,0C93.6,177.8,84.7,178.1,77.5,179.8z"/>
			<g>
				<path class="st12" d="M90.6,226.9L80,216l-5.7,23.8c0,0,4.3,8.4,4.5,7.9C78.9,247.3,90.6,226.9,90.6,226.9z"/>
				<polygon class="st10" points="89.3,227.2 80.1,218 75.1,217.2 74.9,237.4 80.8,241 				"/>
				<polygon class="st19" points="89.3,227.2 80.1,218 75.1,217.2 74.9,237.4 80.8,241 				"/>
				<polygon class="st10" points="74.8,215 84.4,225.8 90.6,226.8 83,258.4 74.2,259.9 67.9,247.3 				"/>
				<polygon class="st12" points="74.8,215 84.4,225.8 90.6,226.8 83,258.4 74.2,259.9 67.9,247.3 				"/>
				<path class="st10" d="M84.1,227.7l-11.5-10.1l-3.8,24.2c0,0,5,8,5.1,7.5C74,248.9,84.1,227.7,84.1,227.7z"/>
				<path class="st34" d="M84.1,227.7l-11.5-10.1l-3.8,24.2c0,0,5,8,5.1,7.5C74,248.9,84.1,227.7,84.1,227.7z"/>
				<polygon class="st10" points="82.9,228.2 73,219.8 68,219.3 69.3,239.5 75.5,242.6 				"/>
				<polygon class="st19" points="82.9,228.2 73,219.8 68,219.3 69.3,239.5 75.5,242.6 				"/>
				<polygon class="st10" points="67.5,217.1 77.9,227.2 84.1,227.7 79.1,259.8 70.4,261.9 63.1,249.9 				"/>
				<polygon class="st21" points="67.5,217.1 77.9,227.2 84.1,227.7 79.1,259.8 70.4,261.9 63.1,249.9 				"/>
			</g>
			<g>
				<path class="st30" d="M56.9,192.2c-0.8,1.5-18.5,31.3-19.2,37.8c-0.8,7.6,0.8,9.9,4.1,11.9s35.4,2.9,35.4,2.9l-1.2-9.6L53.8,229
					l19.4-30.2L56.9,192.2z"/>
				<path class="st10" d="M69.2,181.7c0,0-8.1-0.7-12.1,7.6c-3.8,7.6-13,24.2-13,24.2l19.4,8.2l10.8-19.1L69.2,181.7z"/>
				<path class="st32" d="M69.2,181.7c0,0-8.1-0.7-12.1,7.6c-3.8,7.6-13,24.2-13,24.2l19.4,8.2l10.8-19.1L69.2,181.7z"/>
			</g>
			<g>
				<path class="st30" d="M64.4,243.9l12.8,0.9c0,0,2,1.9,3.8,2.8c1.7,1,4,2.1,7.2,1.3c3.2-0.7,1.3-2.3,1.3-2.3
					c3.1-1.2,1.9-3.8,1.9-3.8c2.8-1,1.7-3.8,1.7-3.8s-0.7-3.4-1.7-4.6c-1-1.2-6.8-1.6-6.8-1.6l-6,2.6l-12.7-1.7
					C65.9,233.9,64.4,243.9,64.4,243.9z"/>
			</g>
		</g>
		<g>
			<path class="st30" d="M80.1,180.4c4.8-4.6,3.8-17,2.6-23.4l15,11.6c-0.3,0.8-0.6,1.5-0.8,2.3c-0.4,1.4-0.4,2.9-0.1,4.3
				c0.3,1.2,1.8,4.4,1.8,4.4s0.9,3.7-8.8,4C85.6,184.3,80.1,180.4,80.1,180.4z"/>
			<path class="st26" d="M85.6,163.5c-0.4,7.6,7.4,10.8,11.2,11.8c-0.3-1.4-0.3-2.9,0.1-4.3L85.6,163.5z"/>
			<g>
				<g>
					<path class="st30" d="M79.8,151.5c2.3,8.8,3.4,13.8,8.9,17.5c8.3,5.5,18.6-0.6,19.1-9.9c0.4-8.4-3.4-21.4-13.1-23.2
						C85.3,134.2,77.5,142.7,79.8,151.5z"/>
					<path class="st12" d="M76,139.5c0.3-5.5,13.9-8.1,18.2-6.1c0.6,0.3-6.6,5.7-6.2,5.5l-3.5,2c-0.6,0-1.6,0.9-1.9,2.7
						c0,0,3.2,14.5-0.2,19.6c-3.7-1-5.1-6.7-6.8-10C73,148.3,69.6,141.1,76,139.5z"/>
					<path class="st30" d="M77.6,159.6c1.2,2.2,3.3,3.6,5.3,4.1c3,0.8,3.5-2.3,2.7-5.1c-0.7-2.5-2.1-5.4-5.1-5
						C77.5,154.1,76.3,157.2,77.6,159.6z"/>
					<path class="st12" d="M92.3,151.3c0.2,0.9,0.8,1.6,1.4,1.4c0.6-0.1,1-1,0.8-1.9s-0.8-1.6-1.4-1.4
						C92.5,149.5,92.1,150.3,92.3,151.3z"/>
					<path class="st12" d="M101.6,150.2c0.2,0.9,0.8,1.6,1.4,1.4c0.6-0.1,1-1,0.8-1.9s-0.8-1.6-1.4-1.4
						C101.8,148.4,101.4,149.3,101.6,150.2z"/>
					<path class="st35" d="M99.6,150.1c0,0,3.9,4,5.2,5.6c-1.1,1.4-3.4,1.3-3.4,1.3L99.6,150.1z"/>
					<path class="st12" d="M90.3,147.8c0.2,0,0.3,0,0.4-0.1c1.3-1.5,3-1.3,3-1.3c0.2,0,0.5-0.1,0.5-0.4c0-0.2-0.1-0.5-0.4-0.5
						c-0.1,0-2.1-0.3-3.8,1.6c-0.2,0.2-0.1,0.5,0,0.6C90.2,147.7,90.3,147.7,90.3,147.8z"/>
				</g>
				<path class="st28" d="M79.3,156.8c0.3-0.6,1-0.9,1.7-0.9s1.3,0.4,1.8,0.8c0.6,0.5,1,1.2,1.3,2"/>
			</g>
			<path class="st12" d="M106.1,145.5c0.1,0,0.1-0.1,0.2-0.2c0.1-0.2,0.1-0.5-0.1-0.6c-2-1.3-3.9-0.5-4-0.5
				c-0.2,0.1-0.3,0.4-0.2,0.6c0.1,0.2,0.4,0.3,0.6,0.2c0.1,0,1.5-0.6,3.2,0.4C105.8,145.5,105.9,145.5,106.1,145.5z"/>
			<g>
				<path class="st12" d="M101.2,160.1c-0.7,1-1.3,2.1-1.9,3.2c-0.2-0.1-0.4-0.1-0.6-0.2c-2.9-0.9-3.9-2.3-4.2-3.5
					c-0.1-0.6-0.1-1.2,0.1-1.8c0.1-0.3,0.2-0.7,0.4-1c1.2,1.4,3.8,2.4,5.2,2.9C100.8,160,101.2,160.1,101.2,160.1z"/>
				<path class="st9" d="M100.2,159.8l-0.6,0.9c-2.7-0.9-4.5-1.8-5.1-2.9c0.1-0.3,0.2-0.7,0.4-1C96.2,158.3,98.8,159.3,100.2,159.8z
					"/>
				<path class="st29" d="M98.7,163.2c-2.9-0.9-3.9-2.3-4.2-3.5c1.1,0.4,2.1,0.9,3,1.6C98.1,161.8,98.5,162.4,98.7,163.2z"/>
			</g>
			<path class="st12" d="M80.3,138c0,0,4.2-13.6,16.6-13.3c-1.1,0.5-2.1,1.1-3,2c0,0,10.3-2.8,14.9,3.9l-2.2-0.8
				c0,0,3.8,5.6,1.4,10.2l-0.9-1.9c0,0-3.3,6.1-10,5.8l2-1.5c0,0-11.1,1.7-14.3-0.6C83.2,140.7,81.7,139.4,80.3,138z"/>
		</g>
	</g>
</g>
<g>
	<polygon class="st23" points="312.3,167.9 306.6,175.2 310.2,183.7 302.8,189.3 304.1,198.4 295.5,201.9 294.4,211.1 285.2,212.2 
		281.7,220.8 272.6,219.5 267,226.9 258.5,223.3 251.2,228.9 243.9,223.3 235.4,226.9 229.8,219.5 220.7,220.8 217.2,212.2 
		208,211.1 206.9,201.9 198.3,198.4 199.6,189.3 192.2,183.7 195.8,175.2 190.2,167.9 195.8,160.6 192.2,152.1 199.6,146.5 
		198.3,137.3 206.9,133.9 208,124.7 217.2,123.6 220.7,115 229.8,116.2 235.4,108.9 243.9,112.5 251.2,106.8 258.5,112.5 267,108.9 
		272.6,116.2 281.7,115 285.2,123.6 294.4,124.7 295.5,133.9 304.1,137.3 302.8,146.5 310.2,152.1 306.6,160.6 	"/>
	<polygon class="st9" points="239.8,192 226.2,178.3 231.3,173.2 239.5,181.5 271,146.6 276.4,151.4 	"/>
</g>
<g class="st36">
	<path class="st9" d="M217.5,296.6l-8.7,20.3h-5.7l-8.7-20.3h6.2l5.5,13.2l5.6-13.2H217.5z"/>
	<path class="st9" d="M233.2,310.4h-11.4c0.2,0.8,0.7,1.4,1.3,1.9c0.7,0.4,1.5,0.7,2.5,0.7c0.8,0,1.4-0.1,2-0.3
		c0.6-0.2,1.1-0.6,1.7-1l2.9,3c-1.5,1.7-3.8,2.6-6.7,2.6c-1.8,0-3.5-0.3-4.8-1c-1.4-0.7-2.5-1.7-3.2-2.9c-0.8-1.2-1.1-2.6-1.1-4.2
		c0-1.5,0.4-2.9,1.1-4.2c0.7-1.2,1.8-2.2,3.1-2.9c1.3-0.7,2.8-1,4.4-1c1.6,0,3,0.3,4.3,1c1.3,0.6,2.3,1.6,3,2.8s1.1,2.7,1.1,4.4
		C233.3,309.1,233.3,309.5,233.2,310.4z M222.8,305.5c-0.6,0.5-0.9,1.1-1.1,2h6.4c-0.2-0.8-0.5-1.5-1.1-2s-1.3-0.7-2.1-0.7
		C224.1,304.8,223.3,305,222.8,305.5z"/>
	<path class="st9" d="M243.3,301.4c0.9-0.4,1.9-0.5,3.1-0.5v5c-0.5-0.1-0.9-0.1-1.2-0.1c-1.2,0-2.1,0.3-2.8,1c-0.7,0.6-1,1.6-1,2.9
		v7.2h-5.5v-15.7h5.2v1.9C241.7,302.3,242.4,301.8,243.3,301.4z"/>
	<path class="st9" d="M248.9,298.6c-0.6-0.6-0.9-1.3-0.9-2.1s0.3-1.5,0.9-2.1s1.4-0.8,2.4-0.8c1,0,1.8,0.3,2.4,0.8
		c0.6,0.5,0.9,1.2,0.9,2c0,0.9-0.3,1.6-0.9,2.2c-0.6,0.6-1.4,0.9-2.4,0.9C250.4,299.4,249.6,299.1,248.9,298.6z M248.6,301.1h5.5
		v15.7h-5.5V301.1z"/>
	<path class="st9" d="M263.7,301.7h3.7v4.1h-3.6v11h-5.5v-11h-2.3v-4.1h2.3v-0.4c0-1.9,0.6-3.4,1.7-4.6s2.8-1.7,4.8-1.7
		c0.7,0,1.4,0.1,2,0.2c0.7,0.1,1.2,0.3,1.6,0.6l-1.4,3.9c-0.5-0.3-1.1-0.5-1.7-0.5c-0.6,0-1,0.2-1.3,0.5c-0.3,0.3-0.5,0.9-0.5,1.5
		V301.7z M272.1,298.6c-0.6-0.6-0.9-1.3-0.9-2.1s0.3-1.5,0.9-2.1c0.6-0.6,1.4-0.8,2.4-0.8c1,0,1.8,0.3,2.4,0.8
		c0.6,0.5,0.9,1.2,0.9,2c0,0.9-0.3,1.6-0.9,2.2c-0.6,0.6-1.4,0.9-2.4,0.9C273.6,299.4,272.7,299.1,272.1,298.6z M271.8,301.1h5.5
		v15.7h-5.5V301.1z"/>
	<path class="st9" d="M296.9,310.4h-11.4c0.2,0.8,0.7,1.4,1.3,1.9c0.7,0.4,1.5,0.7,2.5,0.7c0.8,0,1.4-0.1,2-0.3s1.1-0.6,1.7-1l2.9,3
		c-1.5,1.7-3.8,2.6-6.7,2.6c-1.8,0-3.5-0.3-4.8-1c-1.4-0.7-2.5-1.7-3.2-2.9s-1.1-2.6-1.1-4.2c0-1.5,0.4-2.9,1.1-4.2
		c0.7-1.2,1.8-2.2,3.1-2.9c1.3-0.7,2.8-1,4.4-1c1.6,0,3,0.3,4.3,1c1.3,0.6,2.3,1.6,3,2.8s1.1,2.7,1.1,4.4
		C296.9,309.1,296.9,309.5,296.9,310.4z M286.4,305.5c-0.6,0.5-0.9,1.1-1.1,2h6.4c-0.2-0.8-0.5-1.5-1.1-2s-1.3-0.7-2.1-0.7
		S287,305,286.4,305.5z"/>
	<path class="st9" d="M316.2,295.3v21.5H311v-1.6c-1,1.2-2.6,1.8-4.6,1.8c-1.4,0-2.7-0.3-3.9-1c-1.2-0.7-2.1-1.6-2.8-2.9
		c-0.7-1.2-1-2.7-1-4.3s0.3-3,1-4.3c0.7-1.2,1.6-2.2,2.8-2.8c1.2-0.7,2.5-1,3.9-1c1.9,0,3.3,0.5,4.4,1.6v-7.2H316.2z M309.8,311.7
		c0.6-0.7,0.9-1.6,0.9-2.8c0-1.2-0.3-2.1-0.9-2.7c-0.6-0.7-1.4-1-2.4-1s-1.8,0.3-2.4,1c-0.6,0.7-0.9,1.6-0.9,2.7
		c0,1.2,0.3,2.1,0.9,2.8s1.4,1,2.4,1C308.4,312.7,309.2,312.4,309.8,311.7z"/>
</g>
</svg>
