<?xml version="1.0" encoding="utf-8"?>
<!-- Generator: Adobe Illustrator 26.3.1, SVG Export Plug-In . SVG Version: 6.00 Build 0)  -->
<svg version="1.1" id="Layer_1" xmlns="http://www.w3.org/2000/svg" xmlns:xlink="http://www.w3.org/1999/xlink" x="0px" y="0px"
	 viewBox="0 0 6250 6251" style="enable-background:new 0 0 6250 6251;" xml:space="preserve">
<style type="text/css">
	.st0{fill:#F0F5FB;}
	.st1{fill:#233066;}
	.st2{fill:#1D1B18;}
</style>
<g>
	<path id="Vertical_full_colour" class="st0" d="M3125,6251L3125,6251C1399.1,6251,0,4851.9,0,3126v0C0,1400.1,1399.1,1,3125,1h0
		c1725.9,0,3125,1399.1,3125,3125v0C6250,4851.9,4850.9,6251,3125,6251z"/>
	<g id="full_colour_3_">
		<path class="st1" d="M3590.5,3421c-103.2-32.9-190.3-47.1-251-54c-191.8-21.8-354.6,3.3-523.1,29.2c-60,9.2-109.2,18.5-141.9,25.1
			c13.3-11.9,61.9-58,75.4-71c30.9-30,58.8-59.7,83.8-88.5c4.8-3.6,9.6-7.2,14.4-10.7c78.9-58.5,158.6-113.1,238.7-163.9
			c-38.6,15-82.4,35.3-128.6,62.7c-31.6,18.8-59.3,38-83.3,56.4c36.1-53,66.3-110.1,89.6-170.2c34.6-43.2,74.5-82.4,118.8-116.8
			c-33.1,13.7-65,29.6-95.4,47.5c21.1-72.8,32.3-149.4,32.3-228.4c0-135.8-33.2-264.4-92.3-378.8
			c173.9,111.8,322.1,256.5,434.4,424.6c17.1,25.5,33.3,51.6,48.7,78.2c14.6,25.2,28.4,50.9,41.4,77c19,38.1,36.3,77.1,51.7,117
			C3548.9,3171.8,3578.4,3294,3590.5,3421z"/>
		<g>
			<path class="st2" d="M927,3125.6h194.4c12.3,104.6,62.7,150.1,183.3,150.1c115.6,0,169.8-49.2,169.8-115.6
				c0-55.4-32-89.8-159.9-108.3l-102.1-14.8c-185.8-25.8-263.3-88.6-263.3-241.1c0-157.5,116.9-273.1,350.6-273.1
				s350.6,114.4,350.6,285.4h-188.2c-11.1-91-64-137.8-167.3-137.8c-103.3,0-147.6,46.8-147.6,113.2c0,55.4,25.8,80,136.6,96
				l102.1,13.5c183.3,27.1,286.7,96,286.7,254.7c0,161.2-123,275.6-372.8,275.6S927,3313.8,927,3125.6z"/>
		</g>
		<g>
			<path class="st2" d="M2356.3,3415.2v-361.7h-371.5v361.7h-198.1v-875.9h198.1v344.5h371.5v-344.5h198.1v875.9H2356.3z"/>
		</g>
		<g>
			<path class="st2" d="M4284.6,3015.5c97.2,19.7,145.2,88.6,145.2,184.5v136.6c0,36.9,4.9,67.7,12.3,88.6h-190.7
				c-11.1-23.4-19.7-50.4-19.7-88.6v-129.2c0-104.6-60.3-124.3-139-124.3h-168.5v342h-198.1v-875.9h417.1
				c191.9,0,299,98.4,299,253.4C4442.1,2912.2,4386.7,2986,4284.6,3015.5z M4119.8,2696.9h-195.6v238.7h195.6
				c84.9,0,124.3-46.7,124.3-119.3C4244,2742.4,4204.7,2696.9,4119.8,2696.9z"/>
		</g>
		<g>
			<path class="st2" d="M5093,3427.3l-241.1-367.8L4741.1,3180v247.3H4543v-875.9h198.1v390l339.6-390h230.1L4981,2913.1l342,514.2
				H5093z"/>
		</g>
		<path class="st1" d="M1393,3633.3c-42.6,0-64.7,27.1-64.7,76c0,48.9,22.1,76,64.7,76c42.9,0,65-27.1,65-76
			C1457.9,3660.4,1435.9,3633.3,1393,3633.3z M1393,3633.3c-42.6,0-64.7,27.1-64.7,76c0,48.9,22.1,76,64.7,76c42.9,0,65-27.1,65-76
			C1457.9,3660.4,1435.9,3633.3,1393,3633.3z M1393,3633.3c-42.6,0-64.7,27.1-64.7,76c0,48.9,22.1,76,64.7,76c42.9,0,65-27.1,65-76
			C1457.9,3660.4,1435.9,3633.3,1393,3633.3z M1828.1,3633.3c-42.6,0-64.7,27.1-64.7,76c0,48.9,22.1,76,64.7,76
			c42.9,0,65-27.1,65-76C1893,3660.4,1871,3633.3,1828.1,3633.3z M1828.1,3633.3c-42.6,0-64.7,27.1-64.7,76c0,48.9,22.1,76,64.7,76
			c42.9,0,65-27.1,65-76C1893,3660.4,1871,3633.3,1828.1,3633.3z M1393,3633.3c-42.6,0-64.7,27.1-64.7,76c0,48.9,22.1,76,64.7,76
			c42.9,0,65-27.1,65-76C1457.9,3660.4,1435.9,3633.3,1393,3633.3z M1393,3633.3c-42.6,0-64.7,27.1-64.7,76c0,48.9,22.1,76,64.7,76
			c42.9,0,65-27.1,65-76C1457.9,3660.4,1435.9,3633.3,1393,3633.3z M1828.1,3633.3c-42.6,0-64.7,27.1-64.7,76
			c0,48.9,22.1,76,64.7,76c42.9,0,65-27.1,65-76C1893,3660.4,1871,3633.3,1828.1,3633.3z M2320.1,3633.6h-53.7v65.6h53.7
			c23.8,0,34.2-12.8,34.2-32.8S2343.9,3633.6,2320.1,3633.6z M2320.1,3633.6h-53.7v65.6h53.7c23.8,0,34.2-12.8,34.2-32.8
			S2343.9,3633.6,2320.1,3633.6z M1828.1,3633.3c-42.6,0-64.7,27.1-64.7,76c0,48.9,22.1,76,64.7,76c42.9,0,65-27.1,65-76
			C1893,3660.4,1871,3633.3,1828.1,3633.3z M1393,3633.3c-42.6,0-64.7,27.1-64.7,76c0,48.9,22.1,76,64.7,76c42.9,0,65-27.1,65-76
			C1457.9,3660.4,1435.9,3633.3,1393,3633.3z M927,3501.5v390h1803.6v-390H927z M1143.8,3785.2c36.4,0,56-19.1,59.6-49.2h38.4
			c0,46.8-38.4,82.2-98,82.2c-67.4,0-105.2-44.4-105.2-109.1s37.8-109.1,105.2-109.1c58.4,0,98,34.6,98,80.5h-38.4
			c-3.6-27.1-22.6-47.4-59.6-47.4c-42.6,0-64.7,27.1-64.7,76C1079.2,3758.1,1101.2,3785.2,1143.8,3785.2z M1393,3818.3
			c-67.4,0-105.2-44.4-105.2-109.1s37.8-109.1,105.2-109.1c67.7,0,105.5,44.4,105.5,109.1S1460.6,3818.3,1393,3818.3z
			 M1694.8,3815.3h-142.2v-212.2h40.6v179.1h101.6V3815.3z M1828.1,3818.3c-67.4,0-105.2-44.4-105.2-109.1s37.8-109.1,105.2-109.1
			c67.7,0,105.5,44.4,105.5,109.1S1895.7,3818.3,1828.1,3818.3z M2166.3,3735.2c0,54.8-29.5,83.1-90.9,83.1
			c-61.1,0-90.6-28.3-90.6-83.1v-132h40.5v128.1c0,39.9,15.2,53.9,50.1,53.9c34.9,0,50.4-14,50.4-53.9v-128.1h40.5V3735.2z
			 M2391.9,3760.5v33.4c0,8.9,1.2,16.4,3,21.4h-38.7c-2.7-5.7-4.8-12.2-4.8-21.4V3762c0-26.2-15.8-32.5-36.6-32.5h-48.3v85.8h-40.5
			v-212.2h98.6c45.3,0,70.3,23.5,70.3,60.5c0,26.8-13.4,45-37.8,52.2C2380,3720.9,2391.9,3737,2391.9,3760.5z M2531.4,3818.3
			c-59,0-87.6-25.9-87.6-71.2h39.3c3.3,28,16.1,40.8,49.2,40.8c32.2,0,46.2-13.7,46.2-33.4c0-14.6-8-24.2-40.5-28.9l-27.1-3.9
			c-44.4-6.3-61.7-21.8-61.7-56.3c0-38.1,27.1-65.3,82.3-65.3c55.1,0,82.2,26.8,82.2,68.3h-38.4c-2.7-25-16.4-37.8-44.7-37.8
			c-28.3,0-40.8,13.1-40.8,32.5c0,14.6,6.9,22,35.2,25.9l27.1,3.9c43.2,6.3,67.1,22.6,67.1,59.3
			C2619,3791.8,2590.4,3818.3,2531.4,3818.3z M2320.1,3633.6h-53.7v65.6h53.7c23.8,0,34.2-12.8,34.2-32.8
			S2343.9,3633.6,2320.1,3633.6z M1828.1,3633.3c-42.6,0-64.7,27.1-64.7,76c0,48.9,22.1,76,64.7,76c42.9,0,65-27.1,65-76
			C1893,3660.4,1871,3633.3,1828.1,3633.3z M1393,3633.3c-42.6,0-64.7,27.1-64.7,76c0,48.9,22.1,76,64.7,76c42.9,0,65-27.1,65-76
			C1457.9,3660.4,1435.9,3633.3,1393,3633.3z M1393,3633.3c-42.6,0-64.7,27.1-64.7,76c0,48.9,22.1,76,64.7,76c42.9,0,65-27.1,65-76
			C1457.9,3660.4,1435.9,3633.3,1393,3633.3z M1828.1,3633.3c-42.6,0-64.7,27.1-64.7,76c0,48.9,22.1,76,64.7,76
			c42.9,0,65-27.1,65-76C1893,3660.4,1871,3633.3,1828.1,3633.3z M1828.1,3633.3c-42.6,0-64.7,27.1-64.7,76c0,48.9,22.1,76,64.7,76
			c42.9,0,65-27.1,65-76C1893,3660.4,1871,3633.3,1828.1,3633.3z M1393,3633.3c-42.6,0-64.7,27.1-64.7,76c0,48.9,22.1,76,64.7,76
			c42.9,0,65-27.1,65-76C1457.9,3660.4,1435.9,3633.3,1393,3633.3z M1393,3633.3c-42.6,0-64.7,27.1-64.7,76c0,48.9,22.1,76,64.7,76
			c42.9,0,65-27.1,65-76C1457.9,3660.4,1435.9,3633.3,1393,3633.3z M1393,3633.3c-42.6,0-64.7,27.1-64.7,76c0,48.9,22.1,76,64.7,76
			c42.9,0,65-27.1,65-76C1457.9,3660.4,1435.9,3633.3,1393,3633.3z"/>
		<g id="design__x26__tech">
			<path class="st1" d="M2924.9,3815.4h-84.3v-212.2h84.3c70,0,105.5,39.6,105.5,106.1C3030.4,3776,2995,3815.4,2924.9,3815.4z
				 M2927,3635h-45.9v148.4h45.9c42,0,62.9-25,62.9-74.2S2969.1,3635,2927,3635z"/>
			<path class="st1" d="M3077.2,3815.4v-212.2h154.7v33.1h-114.1v55.4h104.6v31h-104.6v59.6h114.1v33.1H3077.2z"/>
			<path class="st1" d="M3270.9,3747.1h39.3c3.3,28,16.1,40.8,49.2,40.8c32.2,0,46.2-13.7,46.2-33.4c0-14.6-8-24.1-40.5-28.9
				l-27.1-3.9c-44.4-6.3-61.7-21.8-61.7-56.3c0-38.1,27.1-65.3,82.3-65.3c55.1,0,82.3,26.8,82.3,68.2h-38.4
				c-2.7-25-16.4-37.8-44.7-37.8c-28.3,0-40.8,13.1-40.8,32.5c0,14.6,6.9,22.1,35.2,25.9l27.1,3.9c43.2,6.3,67.1,22.7,67.1,59.3
				c0,39.6-28.6,66.2-87.6,66.2C3299.5,3818.3,3270.9,3792.4,3270.9,3747.1z"/>
			<path class="st1" d="M3492.9,3815.4v-212.2h40.5v212.2H3492.9z"/>
			<path class="st1" d="M3580.3,3709.3c0-64.7,37.8-109.1,105.2-109.1c62.3,0,95.7,36.1,95.7,74.2h-36.4
				c-5.4-22.9-25-41.1-59.3-41.1c-42.6,0-64.7,27.1-64.7,76s22.1,76,64.7,76c39.6,0,56.9-22.4,59.3-57.8h-53.6v-27.7h92.1v115.6
				h-29.5l-3.6-35.8c-9.2,24.7-30.4,38.7-68.5,38.7C3616,3818.3,3580.3,3773.9,3580.3,3709.3z"/>
			<path class="st1" d="M3973.3,3815.4l-99.5-154.7v154.7h-38.4v-212.2h43.5l99.2,154.7v-154.7h38.7v212.2H3973.3z"/>
			<path class="st1" d="M4300,3798.7c-18.5,13.1-40.2,19.7-63.8,19.7c-50.7,0-75.7-26.8-75.7-58.1c0-26.8,11.9-45,44.7-58.4
				c-14.6-16.1-20.6-30.4-20.6-48c0-29.2,22.4-53.6,62-53.6c39.9,0,62.3,24.4,62.3,53.6c0,25.3-15.8,39.9-53.9,53.9l45.6,46.5
				c6.9-10.7,12.2-24.7,15.2-41.7h34.6c-4.8,25.9-14.3,47.7-27.7,64.4l37.8,38.4h-44.1L4300,3798.7z M4278.8,3777.2l-56-57.5
				c-17,8.3-23.8,20-23.8,36.7c0,19.7,17.6,32.8,39.9,32.8C4252.9,3789.1,4266.6,3785.5,4278.8,3777.2z M4238,3689.9
				c23.5-9.2,34.3-22.1,34.3-37c0-16.1-10.1-25.3-25.6-25.3c-15.2,0-25.3,9.2-25.3,25.3C4221.3,3664.6,4224.3,3674.7,4238,3689.9z"
				/>
			<path class="st1" d="M4549.4,3815.4v-179.1H4485v-33.1h169.6v33.1h-64.7v179.1H4549.4z"/>
			<path class="st1" d="M4697.8,3815.4v-212.2h154.7v33.1h-114.1v55.4h104.6v31h-104.6v59.6h114.1v33.1H4697.8z"/>
			<path class="st1" d="M4891.5,3709.3c0-64.7,37.8-109.1,105.2-109.1c58.4,0,98,34.6,98,80.5h-38.4c-3.6-27.1-22.6-47.4-59.6-47.4
				c-42.6,0-64.7,27.1-64.7,76s22.1,76,64.7,76c36.4,0,56-19.1,59.6-49.2h38.4c0,46.8-38.4,82.3-98,82.3
				C4929.3,3818.3,4891.5,3773.9,4891.5,3709.3z"/>
			<path class="st1" d="M5282.5,3815.4v-90.9H5182v90.9h-40.5v-212.2h40.5v86.7h100.4v-86.7h40.5v212.2H5282.5z"/>
		</g>
	</g>
</g>
</svg>
